<?xml version="1.0" encoding="UTF-8"?>
<svg id="Camada_2" data-name="Camada 2" xmlns="http://www.w3.org/2000/svg" viewBox="0 0 10239.49 1110.74">
  <defs>
    <style>
      .cls-1 {
        fill: #53b6f9;
      }

      .cls-1, .cls-2, .cls-3 {
        stroke-width: 0px;
      }

      .cls-2 {
        fill: #3a85f7;
      }

      .cls-3 {
        fill: #feffff;
      }
    </style>
  </defs>
  <g id="Layer_1" data-name="Layer 1">
    <g>
      <path class="cls-3" d="M9421.62,591.72s0,.01,0,.01h0s0-.01,0-.01ZM10174.8,616.05c-85.38-6.48-170.91-10.21-256.44-13.82-47.61-2-95.25-2.62-142.89-3.08-20.8-.2-17.91.73-15.81-18.03,4.22-37.67,9.43-75.22,15.59-112.63.66-4.02.35-7.93-.45-11.88-1.39-6.88-3.57-13.52-6.57-19.85-3.84-8.09-5.01-15.77-1.74-24.84,4.09-11.31,3.42-23.61,3.2-35.6-.03-1.62-.08-3.83-1.07-4.75-9.18-8.58-6.94-20.99-10.75-31.35-1.13-3.09-1.31-6.52-2.21-9.71-3.41-12.01-10.72-18.57-20.51-18.59-9.99-.03-17.09,6.33-20.33,18.61-2.12,8.03-3.95,16.15-5.73,24.26-.82,3.74-1.44,7.2-6.48,7.24-3.71.04-5.98,2.63-7.82,5.52-7.32,11.52-14.75,22.96-21.84,34.61-3.88,6.38-3.76,7.98,2.07,12.79,11.53,9.5,22.46,19.91,36.16,26.41,3.55,1.69,4.1,3.89,3.19,7.17-11.86,43.03-14.48,87.97-27.19,130.82-.19.64-.34,1.29-.5,1.93-4.18,16.14-6.23,17.81-23.34,18.71-21.29,1.12-42.58,2.21-63.87,3.26-8.51.42-8.71.39-10.52-8.1-8.23-38.39-15.14-77.03-21.3-115.8-3.34-20.99-8.15-41.89-6.19-63.39,1.17-12.91,2.89-25.77,4.18-38.67.45-4.54,2.73-6.58,7.13-6.4,8.33.34,14.45-4.05,20.46-9.04,9.29-7.71,18.14-15.45,21.5-27.94,1.5-5.58,1.84-10.21-1.5-15.06-9.9-14.43-20.58-27.89-38.39-33.21-.5-.15-.82-.95-1.25-1.49-.34-2.1,1.53-2.67,2.7-3.7,2.19-1.93,2.17-3.99.31-6.05-1.58-1.77-3.65-2.01-5.23-.31-3.77,4.02-7.15,2.67-11.48.55-6.95-3.39-14.22-4.06-19.96,2.78-2.24,2.69-5.17,2.52-8.12,2.94-3.41.48-5.25,2.99-2.48,5.41,5.91,5.15,4.84,10.27,1.4,15.91-.17.28-.24.62-.35.93-4.31,12.36-3.59,13.47,9.2,14.06-.14,7.95-2.21,11.06-8.72,13.05-.63.2-1.3.38-1.96.37-12.66-.09-18.74,7.28-24.28,18-12.7,24.53-30.17,45.4-53.8,60.52-5.93,3.8-12.12,6.93-19.28,7.75-4.23.48-7.07-.72-8.16-5.22-1.33-5.5-2.97-10.91-4.43-16.37-6.89-25.71-13.76-51.42-20.63-77.13-.52-1.93-.88-3.9-1.46-5.81-1.34-4.46.69-5.98,4.9-6.23,7.31-.44,14.63-.68,20.5-6.28,4.98-4.74,5.26-4.98,1.91-10.7-5.3-9.03-5.31-9.11-15.58-7.03-13.71,2.77-27.39,5.66-41.08,8.54-3.15.66-7.37.32-7.92,4.59-.58,4.55-.82,9.46,1.56,13.62,1.53,2.67,4.76,1.81,7.36,1.52,5.3-.57,10.58-1.26,15.86-1.91,3.53-.44,5.67,1.02,6.61,4.49,1.13,4.18,2.52,8.28,3.64,12.45,7.57,28.28,15.1,56.57,22.65,84.86,1.3,4.86,3.1,9.81-4.28,12.95,7.69,1.22,9.39,6.27,10.87,12.01,14.71,57.01,29.62,113.98,44.36,170.99.93,3.6,4,8.35.1,10.87-3.12,2.02-6.45-2.19-9.58-3.94-12.39-6.96-23.7-15.86-37.14-20.98h-.01c-.21-.43-.46-.81-.73-1.17h0c-.26-.37-.56-.7-.86-1.01-1.9-1.95-4.47-3.1-6.67-4.67-37.18-26.42-75.09-51.86-110.53-80.63-23.26-18.88-46.23-38.12-68.97-57.63-8.03-6.89-15.1-14.94-22.39-22.67-4.19-4.44-8.31-5.91-14.9-5-39.58,5.44-79.23,10.27-119.1,13.43-33.46,2.64-66.54.78-99.62-3.92-10.02-1.42-9.94-1.23-14.14,7.74-21.18,45.2-38.88,91.9-59.32,137.42-15.26,33.99-30.41,68.02-47.41,101.2-4.24,8.28-4.11,8.46-13.76,7.02-35.57-5.33-71.2-9.97-107.11-12.78-41.27-3.22-81.74,0-121.99,9.42-46.31,10.83-92.79,20.93-139.22,31.21-45.68,10.11-91.42,19.96-137.09,30.11-68.01,15.11-135.86,30.97-204.02,45.37-44.94,9.49-90.31,16.99-135.48,25.36-71.7,13.3-143.01,28.52-214.33,43.7-61.35,13.06-123.39,20.65-185.9,25.56-83.19,6.54-165.87,2.31-248.03-10.68-71.87-11.36-141.69-31.13-210.01-56.28-59.68-21.97-118.3-46.7-178.17-68.17-48.67-17.46-98.01-32.36-149.36-39.7-81.62-11.67-162.11-6.63-241.41,16.19-6.72,1.94-13.52,3.61-20.26,5.46-3.81,1.04-5.77-.31-5.83-4.28-.18-12.98-.35-25.95-.53-38.92-.04-3.04,1.4-4.93,4.25-6.02,2.8-1.06,5.47-2.46,8.23-3.61,16.94-7.05,28.15-19.68,35.36-36.2,6.7-15.37,10.79-31.49,12.81-48.06,8.24-67.49-1.83-131.95-32.73-192.84-4.37-8.61-9.51-16.77-15.4-24.46-3.46-4.52-7.39-8.58-11.9-12.04-7.96-6.11-13.82-6.08-21.43.64-7.55,6.66-13.4,14.81-18.66,23.32-20.07,32.45-31.98,67.98-38.32,105.33-6.34,37.3-.56,116.21-.34,118.19.44,4.04,2.11,14.49,2.47,15.65,4.33,13.85,8.14,20.71,15.2,29.25,8.98,10.86,26.09,20.48,34.21,23.31,3.01,1.05,5.62,2.42,5.53,6.08-.37,15.87,1.25,31.77-.79,47.61.18,6.01-5.41,5.6-8.67,7.77-3.11,1.39-11.15,3.84-12,4.12-30.93,10.17-61.76,20.67-92.88,30.31-44.46,13.76-89.31,25.99-134.59,36.75-56.4,13.4-113.23,24.35-170.84,31.18-32.43,3.84-64.98,5.99-97.53,8.35-65.95,4.79-131.82,3.22-197.69-1.25-8.1.76-16.08-.19-24.03-1.61-3.35-.15-6.69-.3-10.04-.46-6.08.72-12.04-.1-17.94-1.53-2-.13-3.99-.26-5.99-.39-5.48.61-10.84,0-16.1-1.57-1.99-.14-3.97-.28-5.95-.42-5.45.68-10.74-.19-15.98-1.61-1.32-.1-2.65-.21-3.97-.31-4.85.63-9.54-.08-14.14-1.63-1.97-.17-3.94-.33-5.91-.5-4.12.62-8.03-.3-11.91-1.57-2.01-.18-4.02-.35-6.03-.53-3.52.66-6.84-.11-10.07-1.43-1.33-.13-2.65-.25-3.97-.38-4.17.57-8.16-.17-12.07-1.58-1.96-.18-3.92-.35-5.89-.52-4.14.64-8.07-.29-11.96-1.56-1.36-.14-2.72-.27-4.08-.41-3.5.52-6.8-.19-10.01-1.52-1.32-.12-2.63-.25-3.95-.37-3.58.58-7,.03-10.26-1.55-1.25-.13-2.5-.26-3.75-.4-4.15.6-8.1-.31-11.97-1.72-1.33-.14-2.66-.28-4-.42-3.52.6-6.83-.21-10.05-1.55-1.33-.15-2.66-.29-3.99-.43-3.49.61-6.73-.33-9.92-1.61-1.35-.14-2.7-.29-4.05-.44-3.49.6-6.75-.24-9.93-1.57-.69-.08-1.39-.16-2.08-.25-3.57.53-6.98-.02-10.23-1.58-1.91-.2-3.82-.4-5.73-.6-3.51.61-6.79-.29-10.02-1.53-21.19-2.39-42.14-6.24-63.15-9.76-74.21-12.45-148.44-24.77-222.63-37.33-67.95-11.5-135.62-24.61-203.64-35.78-52.24-8.58-104.33-18.11-156.45-27.49-12.03-2.17-24.21-3.94-37-7.9,7.1-5.02,13.77-8.87,19.41-13.88,18.47-16.4,27.52-36.45,21.5-61.43-1.21-5.02-.17-9.15,2.1-13.34,7.42-13.76,14.92-27.48,22.28-41.28,3.44-6.45,7.05-12.87,9.82-19.62,5.29-12.88-1.18-26.09-14.46-29.92-5.43-1.56-11.02-2.56-16.58-3.62-16.03-3.06-32.11-5.82-48.1-9.07-10.86-2.21-10.83-2.5-8.57-12.94,1.83-8.45,3.99-16.84,5.48-25.35.78-4.47,1.18-8.55,6.53-9.94,2-.52,3.37-2.19,3.11-4.53-.26-2.4-2.21-3.26-4.16-3.67-5.86-1.24-11.72-2.5-17.65-3.36-5.33-.78-6.42.8-4.36,6.21,1.18,3.12,2.56,5.91,1.58,9.53-2.81,10.26-5.36,20.6-7.81,30.95-1.19,5.07-3.69,7.16-9.13,6.09-12.73-2.52-25.59-4.43-38.31-7.03-8.56-1.76-8.48-2.09-9.58-11.12-3.67-30.05-7.3-60.1-11.03-90.15-1.36-10.98-1.46-11.04,9.53-11.13,3.47-.02,4.88-1.06,4.04-4.75-1.84-8.02-5.4-13.76-14.45-15.62-40.76-8.37-81.44-17.17-122.16-25.73-13.36-2.81-26.73-5.57-40.16-7.99-11.57-2.08-19.93,1.62-24.92,10.35-2.55,4.45-1.78,6.47,2.95,8.15,2.75.98,5.97.51,8.39,2.58.52,3.64-1.56,6.42-2.98,9.36-5.03,10.5-10.15,20.96-15.23,31.43-7.26,14.97-14.43,29.97-21.82,44.87-3.61,7.28-3.8,7.24-11.43,6.08-3.95-.59-7.88-1.33-11.79-2.15-3.73-.77-5.63.89-6.48,4.35-1.28,5.22.14,7.14,6.55,8.6,3.07.7,7.56-.15,7.51,4.62-.08,7.41-3.09,14.26-5.52,21.14-1.52,4.3-6.14,4.73-9.51,6.7-4.31,2.52-8.74,4.86-12.86,7.67-30.63,20.94-45.9,60.43-36.81,94.4,2.89,10.79,8.51,20.16,14.31,29.48,9.1,9.93,19.22,18.75,30.54,26.28-.33.64-.66,1.27-.99,1.91-8.07-.94-16.17-1.73-24.22-2.85-33.63-4.66-67.24-9.4-100.85-14.17-1.62-.23-3.17-.93-4.76-1.41-11.25-1.22-22.48-2.61-33.75-3.66-84.28-7.82-168.62-14.6-253.36-14.8-25.32-.05-50.64-.32-75.96-.61-8.39-.1-8.56-.26-8.75-8.27-.29-12.31-.1-24.63-.53-36.93-.21-5.89,1.84-9.01,7.63-10.87,17.23-5.5,28.45-17.93,36.73-33.38,6.19-11.54,9.83-23.97,12.37-36.75,10.52-53.06,6.57-105.28-9.25-156.78-7.85-25.56-18.3-49.94-33.76-71.97-4.45-6.33-9.71-11.83-15.9-16.43-7.68-5.7-9.74-5.59-17.62.29-5.95,4.45-10.63,10.07-14.75,16.15-9.93,14.65-18.36,30.11-24.81,46.61-14.05,35.94-21.76,73.22-23.95,111.73-1.4,24.4.09,48.55,5.1,72.46,6.73,32.1,19.68,59.56,54.05,70.62,2.92.94,4.27,2.92,4.22,5.98-.22,14.63-.42,29.27-.59,43.91-.04,3.6-1.52,5.63-5.35,5.57-2.33-.04-4.66.06-6.99.08-62.32.56-124.62-.83-186.93-1.38-23.32-.2-46.63-1.01-69.96-.1-8.48.33-8.81-.13-8.95-8.03-.28-15.97-.18-31.94-.42-47.91-.07-4.67,1.49-7.19,6.32-8.47,33.94-8.98,56.42-31.39,71.67-61.94,11.41-22.86,17.76-47.33,21.72-72.39,11.93-75.65,8.35-150.56-11.72-224.57-13.13-48.41-30.92-94.84-58.9-136.87-8.88-13.34-18.19-26.31-31.89-35.35-11.06-7.29-16.56-7.52-27.36.12-9.33,6.59-16.64,15.31-23.52,24.32-15.64,20.48-28.25,42.8-38.52,66.33-31.86,72.96-47.89,149.26-47.38,228.93.2,31.34,2.32,62.48,8.98,93.22,5.32,24.55,12.98,48.18,26.59,69.53,15.04,23.57,35.11,40.74,62.64,48.08,6.57,1.75,7.94.41,7.95,11.02.02,13.97-.12,27.95-.23,41.92-.13,14.91.2,12.82-13.12,12.86-82.65.29-165.22,3.31-247.76,7.3-42.26,2.03-84.5,4.5-126.73,6.97-31.93,1.87-63.87,3.67-95.74,6.17-51.8,4.08-103.56,8.58-155.32,13.14-46.77,4.12-93.52,8.53-140.28,12.85-47.42,4.39-94.84,8.82-142.26,13.24-38.14,3.55-76.27,7.1-114.4,10.66-47.75,4.45-95.51,8.82-143.25,13.39-36.79,3.53-73.56,7.37-110.35,10.99-37.45,3.69-74.91,7.26-112.36,10.93-30.83,3.01-61.65,6.04-92.46,9.16-34.79,3.53-69.56,7.26-104.35,10.74-36.78,3.67-73.59,7.08-110.38,10.71-37.45,3.69-74.88,7.48-112.32,11.27-35.45,3.59-70.9,7.25-106.34,10.86-43.41,4.41-86.81,8.81-130.21,13.18-30.82,3.1-61.63,6.21-92.45,9.22-31.16,3.04-62.32,5.99-93.49,8.93-30.83,2.91-61.68,5.71-92.51,8.61-32.5,3.05-64.97,6.28-97.48,9.2-26.87,2.41-53.76,4.48-80.65,6.73-37.17,3.1-74.33,6.35-111.51,9.3-30.22,2.39-60.46,4.47-90.69,6.59-35.22,2.46-70.43,5.13-105.68,7.14-36.25,2.07-72.53,3.58-108.81,5.1-28.29,1.19-56.6,2.11-84.9,2.93-7.54.22-7.81-.14-8.15-7.73-.86-19.28-1.36-38.58-2.23-57.85-.26-5.76,1.44-8.9,7.46-10.78,18.16-5.69,28.28-19.01,32.98-36.95,3.5-13.38,3.59-26.98,2.92-40.65-2.2-44.67-9.11-88.66-19.1-132.2-4.16-18.15-8.5-36.3-15.57-53.61-2.5-6.15-5.42-12.16-8.62-17.97-2.08-3.76-4.11-3.62-6.75-.08-1.18,1.58-2,3.44-2.95,5.19-6.29,11.47-10.19,23.85-13.58,36.38-12.2,45.06-20.31,90.86-24.48,137.35-1.82,20.24-3.03,40.44-.41,60.75,2.77,21.39,14.07,35.31,34.6,41.93,7.43,2.39,7.78,2.53,7.49,10.46-.75,19.94-2.02,39.87-2.75,59.81-.2,5.37-2.64,6.68-7.45,6.64-7.99-.06-15.98.35-23.98.55-43.64,1.09-87.28,1.63-130.94,1.37-10-.06-10.22-.19-10.7-9.67-.98-19.27-1.79-38.55-2.47-57.84-.28-8.09-.11-8.29,7.26-10.57,25.29-7.83,39.06-25.46,43.4-50.93,3.43-20.08,4.33-40.32,3.13-60.67-2.63-44.63-9.4-88.65-19.52-132.15-7.39-31.77-15.47-63.36-29.3-93.12-1.81-3.9-3.98-7.68-6.3-11.3-1.89-2.95-4.46-2.72-6.53-.12-1.42,1.8-2.56,3.87-3.53,5.96-4.62,9.97-8.74,20.13-11.83,30.69-17.98,61.44-30.7,123.97-37.33,187.63-2.34,22.46-3.92,45.11-1.02,67.74,3.58,27.94,17.28,47.92,45.19,56.1,5.95,1.75,6.9,4.97,6.64,10.14-.99,19.94-1.82,39.88-2.72,59.83-.04.99-.3,1.98-.31,2.97-.02,3.66-1.66,5.53-5.48,5.33-2.32-.13-4.66-.04-6.99-.06-36.66-.24-73.3-.79-109.94-2.17-45.94-1.74-91.86-4.1-137.73-7.19-48.2-3.24-96.3-7.61-144.35-12.6-6.66-.69-10.19-1.01-12.05-2.68H.2c-.12,105.21-.2,204.01-.2,285.63h10239.49v-489.14c-21.56-1.87-43.11-3.92-64.69-5.55ZM4830.15,526.77c.05-.25.1-.49.15-.72.11-.47.23-.9.37-1.3.07-.2.14-.39.22-.57.07-.18.15-.36.24-.52.17-.34.37-.64.58-.91.12-.15.25-.29.39-.42.19-.19.4-.36.63-.5.09-.06.19-.12.29-.17l.36-.18c.28-.13.58-.23.91-.3.05-.02.11-.03.16-.04.31-.06.64-.11.99-.13.1,0,.21-.02.32-.02.86-.05,1.84.01,2.98.17,9.81,1.35,19.61,2.95,29.33,4.9,1.16.23,2.14.52,2.96.89.4.18.77.38,1.1.6.51.32.92.69,1.25,1.1.23.27.41.56.56.86.06.12.11.24.16.37.03.06.05.13.07.19.02.03.03.07.04.11.04.1.07.2.09.32.01,0,.01.02.01.03.05.16.08.33.1.5.16.95.11,2.03-.11,3.25-.17.98-.44,1.77-.81,2.42-.18.32-.38.61-.61.86-.13.15-.27.29-.42.42-.1.08-.2.17-.31.24-.13.1-.27.18-.41.26-.07.04-.14.08-.21.11-.02.01-.04.02-.06.02-.11.05-.22.1-.33.15-.04.02-.07.03-.11.04-.1.04-.21.08-.32.11-.26.08-.54.15-.82.19-.08.02-.15.03-.23.04s-.15.02-.23.03c-.07.01-.15.02-.22.02-.12.02-.23.03-.36.03-.12.01-.23.01-.35.01-.87.03-1.82-.03-2.82-.15-9.47-.63-19.21-2.56-28.95-4.39-.33-.06-.66-.13-.98-.21-.49-.11-.97-.24-1.42-.4-.15-.05-.29-.1-.43-.16-.23-.08-.45-.17-.66-.28-.14-.07-.29-.14-.43-.22-.48-.26-.92-.56-1.29-.92-.14-.12-.27-.26-.4-.41-.12-.15-.23-.3-.34-.46-.21-.32-.38-.67-.51-1.05-.05-.14-.09-.27-.12-.42-.01-.02-.01-.03-.01-.05-.02-.07-.03-.14-.05-.21-.03-.15-.06-.32-.07-.48-.02-.05-.02-.1-.02-.15-.04-.47-.04-.98.01-1.52.03-.31.07-.64.14-.98ZM4525.53,431.74c12.6-27.14,25.39-54.2,38.14-81.27,1.62-3.44,3.37-6.02,8.27-5.12,33.07,6.03,66.25,11.4,99.1,18.59,10.26.59,20.3,2.43,30.11,5.48,2.78.3,5.2.57,7.31.84.17.03.34.05.51.07.49.06.96.13,1.41.2.23.03.46.07.68.11.22.03.44.07.65.11.11,0,.21.03.32.05.05.01.1.02.16.03.26.05.51.09.76.14.35.07.69.14,1.02.22.22.05.44.11.66.16.02,0,.03,0,.04.01.22.06.44.12.66.18.22.06.43.12.63.19.38.12.73.25,1.07.38.22.09.43.18.63.28.17.08.34.16.5.25h.01c.32.17.63.35.92.55.15.1.29.21.43.31.14.11.27.22.4.33.13.11.26.23.38.35.12.12.24.25.35.37.11.13.23.27.33.4.35.44.66.93.94,1.46.14.26.27.53.39.82.19.42.36.87.52,1.35.05.16.11.33.16.5.11.34.21.69.3,1.05.12.47.24.97.35,1.49.07.29.13.58.18.88l.12.63c.12.64.23,1.32.34,2.03.02.12.04.24.06.36.06.37.12.76.17,1.16.22,1.46.43,3.07.65,4.84.06.5.12,1.01.19,1.54.78,6.23,1.55,12.47,2.31,18.7,2.55,21.16,4.94,42.35,7.34,63.53.4,3.49,1.46,7.32-1.8,10.29-4.66,4.24-8.7,3.88-13.15-1.16-.44-.5-.9-.98-1.33-1.49-6.65-7.78-6.63-7.96,1.61-13.36,1.33-.87,3.11-1.23,3.61-3.06.08-.28-.08-.63-.23-1.69-4.95.69-8.92,3.79-13.37,5.47-1.52.58-3.67,2.48-4.44,1.45-.15-.2-.31-.39-.47-.58-.16-.18-.32-.35-.49-.52-.31-.31-.64-.59-.97-.84-.17-.13-.34-.25-.52-.36-.14-.1-.28-.19-.43-.27-.76-.45-1.56-.79-2.39-1.07-.17-.05-.35-.11-.52-.16-.23-.07-.47-.14-.7-.2-.37-.09-.73-.17-1.1-.25-.2-.04-.4-.08-.61-.12-.24-.05-.48-.09-.71-.14-.37-.06-.75-.12-1.12-.19-.48-.09-.96-.17-1.44-.26-.33-.06-.66-.12-.98-.19-.28-.06-.55-.13-.82-.19-.43-.1-.85-.22-1.26-.36-.21-.06-.41-.13-.61-.21-.2-.06-.38-.14-.57-.22-1.2-.5-2.32-1.2-3.3-2.2-3.61-3.7-8.66-3-13.11-3.92-17.97-3.73-14.74-1.86-12.01-17.29.15-.84.3-1.69.44-2.53.12-.65.23-1.31.33-1.96.07-.38.13-.75.18-1.12.11-.66.21-1.31.3-1.97.01-.09.03-.19.04-.28.1-.75.2-1.5.29-2.25.25-2.07.42-4.16.48-6.26.02-.57.03-1.15.03-1.72,0-.22-.01-.46-.01-.68-.01-.42,0-.83.02-1.23,0-.01.01-.03,0-.05.04-1.1.15-2.15.34-3.13.04-.25.09-.5.16-.74.04-.21.09-.41.15-.61.02-.07.04-.13.06-.19.05-.21.11-.41.19-.61.06-.23.14-.45.24-.67.16-.44.35-.87.56-1.28t.01-.01c.1-.2.2-.4.32-.59.13-.24.28-.47.43-.69.09-.15.19-.3.31-.45.12-.18.26-.36.41-.53.27-.35.58-.68.9-1,.65-.65,1.38-1.23,2.18-1.75.19-.13.39-.26.59-.37.2-.12.41-.24.62-.35.12-.07.25-.14.39-.2.17-.09.34-.17.52-.25.53-.25,1.09-.48,1.68-.68.17-.06.34-.12.51-.18,1.21-.39,2.52-.71,3.94-.95,4.53-.77,8.05-3.22,8.17-7.43.03-1.06.11-2.11.22-3.14.12-1.04.27-2.06.46-3.07.1-.5.2-1,.31-1.5.22-1,.47-1.99.75-2.97.29-1.04.61-2.07.96-3.09.11-.34.22-.69.35-1.03.36-1.04.74-2.07,1.13-3.11.17-.45.34-.9.52-1.34.56-1.45,1.14-2.91,1.72-4.37-7.73-3.43-16.16-3.37-24.28-4.87-1.75.4-3.5.79-5.25,1.18-.52,1.11-1.4,1.74-2.59,1.98-5.62,5.75-8.02,11.77-3.53,19.67,3.11,5.46,1.2,10.7-5.21,12.42-16.38,4.37-24.02,16.8-30.52,30.61-1.77,3.76-3.5,7.54-5.21,11.33s-3.39,7.59-5.06,11.39c-.12.28-.25.55-.38.8-.13.25-.27.48-.41.69-.14.22-.28.41-.43.59-.08.09-.15.17-.23.25-1.35,1.41-3.08,1.45-5.56.09-6.44-3.56-11.96-6.67-12.81-15.82-.19-2.09-.48-4.17-.84-6.24-.24-1.39-.52-2.77-.81-4.14-1.63-7.58-4.01-15.09-5.96-22.6-.73-2.82.01-7.54-5.24-6.76-3.96.59-6.29,4.65-5.63,9.05,1.32,8.87,2.73,17.71,4.07,26.57.25,1.61.34,3.24.47,4.58-1.93,2.16-4,1.48-5.89,1.12-14.06-2.66-28.13-5.3-42.15-8.17-6.52-1.33-6.82-1.75-3.99-7.85ZM4707.83,500.18c-7.23,3.92-14.56,7.64-22.99,12.05-.13-25.63-1.75-27.41-30.25-34.39,3.54-1.85,6.44-1.42,9.19-.99,7.54,1.18,14.98,3.33,22.71,1.06,1.11-.33,2.9-.02,3.74.72,4.08,3.58,7.96,2.47,11.84-.1.74-.49,1.45-.85,2.14-1.09.82-.29,1.61-.4,2.35-.34.25.01.5.05.74.11.22.05.44.12.65.2.04.01.09.03.13.05.6.24,1.17.59,1.71,1.06.13.11.25.22.37.34.11.1.22.21.32.32.15.16.3.33.44.51.2.23.39.49.58.76,9.61,13.84,11.11,11.72-3.67,19.73ZM4533.96,595.34c-17.72-.13-32.64-10.55-37.45-26.14-4.43-14.37.71-30.16,13.35-38.78,12.31-8.4,25.89-9.75,40.07-5.37.42.13.83.27,1.24.41.31.1.6.21.9.32.29.1.57.21.85.33.61.23,1.2.49,1.79.76.34.15.67.31,1,.48.72.35,1.42.73,2.11,1.14.07.04.14.08.21.12.13.08.26.16.4.24.38.24.76.47,1.12.72.2.14.41.28.61.42.2.14.4.28.6.43.31.23.62.46.93.7.3.24.6.49.89.74.29.24.57.48.85.74.01,0,.02.01.03.02.28.25.56.51.83.78.28.27.55.54.82.82.23.24.46.48.67.72.22.24.44.49.66.74.43.5.84,1.01,1.24,1.53.15.2.29.39.44.59l.09.12c.23.32.46.64.68.97.07.08.12.17.18.26.11.16.22.32.32.49.11.16.21.33.32.5.19.29.37.58.54.88.02.05.05.09.07.13h.01c.15.26.3.52.44.78.05.07.09.15.12.22.03.07.07.13.11.2.19.34.37.69.55,1.04.06.11.12.23.18.35.06.12.11.24.16.36.09.18.18.36.26.54.05.11.1.22.16.33.06.11.11.23.16.35.03.04.05.08.06.13,0,0-.01,0,0,.01h.01c.32.75.64,1.51.94,2.29.06.16.12.33.18.49.09.22.17.44.24.67.01.05.03.09.04.14.02.05.04.11.05.16.03.08.06.16.08.24.03.09.06.18.09.27.04.11.07.23.1.34,0,.05.03.1.04.15.04.13.08.26.11.4t.01.03s.03.08.03.12c.02.04.03.09.04.13.08.27.14.56.2.83.02.04.03.09.03.13.09.34.15.67.21,1.01.02.07.03.14.04.21,0,.04.02.08.02.12.07.41.14.82.19,1.24.01.01.01.02,0,.04,0,0,.01,0,.01.01.05.37.09.73.12,1.11.01.02.01.05.01.08.01.04.01.08.01.13.03.34.06.68.07,1.03.01.03.01.04,0,.05,0,0,.01,0,0,.01t0,.02s.01,0,0,.01c.01.06.01.12.01.17.01.08.01.17.01.26.03.4.03.8.03,1.2,0,.45-.01.89-.03,1.33h0c-.02.46-.05.9-.08,1.35-.03.44-.08.88-.13,1.33-.06.44-.12.88-.19,1.32-.08.47-.16.93-.26,1.39-.09.41-.18.82-.28,1.23-.05.22-.11.44-.16.65-.05.22-.11.44-.18.65-.12.43-.25.86-.39,1.29-.12.38-.25.76-.39,1.13-.27.75-.57,1.49-.89,2.23-.68,1.54-1.46,3.04-2.35,4.49-.34.54-.69,1.08-1.05,1.6-.19.27-.38.54-.57.8-.19.27-.39.53-.59.79-1,1.3-2.09,2.54-3.27,3.69-.23.23-.47.46-.71.68-.24.24-.49.46-.74.67-.5.44-1.01.86-1.53,1.27-.27.22-.55.43-.83.64-.25.19-.5.37-.75.54-.32.22-.64.44-.97.65-.98.64-1.99,1.23-3.04,1.76-6.91,3.52-14.29,5.39-22.11,5.31ZM4557.03,650.36c2.24-3.91,5.62-4.46,8.58-5.27,25.34-6.96,43.95-22.92,58.5-44.03,2.89-4.18,5.49-5.69,10.55-4.74,28.77,5.43,57.58,10.6,86.41,15.71,4.35.77,6.64,2.41,5.9,7.19-.46,2.94-.37,5.96-.57,8.95-1.06,15.54,3.06,29.53,12.29,42.13.42.58.89,1.14,1.37,1.7.32.38.65.75.97,1.14.17.21.34.42.51.63.16.19.31.39.45.58.27.36.54.74.78,1.13.08.12.15.24.22.36.12.18.23.37.33.56.11.2.21.41.3.62.11.2.2.41.28.63.1.24.19.48.27.73.07.19.13.38.18.57.02.02.02.05.02.07.08.23.13.44.18.68.06.28.12.56.16.86.02.09.03.18.04.27.04.3.08.59.1.91-62.73-10.33-125-19.8-187.82-31.38ZM4829.45,633.93c0,.11-.01.22-.02.33,0,.11-.01.23-.03.34,0,.12-.02.25-.03.38-.05.44-.11.88-.19,1.32-.06.34-.13.68-.21,1.02-.06.29-.13.58-.22.86,0,.02,0,.04-.02.05-.06.21-.12.42-.19.63,0,.04-.02.09-.04.13-.07.22-.14.44-.22.66-.08.23-.17.47-.26.7-.09.24-.19.47-.29.7-.21.5-.44.99-.69,1.48-.08.16-.16.32-.26.48,0,.03-.02.06-.04.08-.12.23-.24.45-.37.67-.09.17-.19.35-.3.52-.1.17-.21.34-.32.51-.11.18-.22.37-.35.55-.13.19-.25.38-.38.56-.25.36-.51.72-.78,1.08-.27.38-.56.76-.87,1.13-.11.14-.22.28-.33.42-.2.23-.39.46-.59.69-6.19,7.13-14.29,10.59-23.86,10.19-18.33-.67-29.68-11.01-30.38-27.59-.25-5.92,1.3-11.23,5.19-15.67,8.39-9.58,19.12-13.01,31.46-10.78.37.07.74.14,1.1.22.36.07.72.16,1.07.25.35.08.7.18,1.05.28.35.09.69.2,1.03.31.21.07.42.14.62.21.23.08.46.16.68.25.26.09.52.19.77.3.27.1.54.22.8.34.3.13.6.26.89.41.07.03.14.06.21.1.07.03.14.07.21.11.31.15.61.31.9.48.66.35,1.3.74,1.91,1.15.23.15.46.3.68.46.38.27.75.54,1.11.83.27.21.54.43.81.66.53.45,1.05.92,1.55,1.42.22.22.44.44.65.66.22.23.43.46.63.69.21.23.41.47.61.7.25.3.5.61.75.93.33.43.65.87.96,1.32.18.26.35.52.53.79.17.27.34.54.51.81.16.27.33.55.49.83s.31.56.47.84c.23.43.45.87.67,1.31.19.38.37.77.55,1.17.23.51.45,1.04.66,1.57.19.47.37.95.54,1.43.08.22.15.43.22.64.07.22.14.43.2.65.06.21.12.42.18.64.07.26.13.52.18.77.03.15.07.3.09.45.01.03.02.05.01.07.03.13.05.26.07.39.03.16.06.31.07.46.02.16.04.31.06.46.02.1.03.19.03.27.03.26.05.52.06.78.05.73.05,1.44.01,2.15ZM9161.17,694.74c0,.12-.02.25-.04.36-.02.11-.03.22-.06.33-.02.11-.04.21-.07.31-.04.15-.08.29-.12.42l-.18.42c-.08.16-.17.32-.27.47-.07.1-.15.21-.23.31s-.17.19-.26.28c-.12.12-.25.23-.38.33-.13.1-.27.19-.42.28-.15.09-.3.17-.46.24-.11.06-.23.11-.35.16s-.25.09-.38.14c-.22.07-.45.14-.69.2-.84.22-1.75.36-2.65.52-24.33,4.19-48.87,6.58-73.51,7.58-41.77,1.68-83.22-2.12-124.47-8.35-28.99-4.37-57.93-9.03-86.88-13.64-3.24-.52-6.64-.56-10.79-2.95,3.39-6.96,6.82-13.92,10.23-20.88,2.28-4.64,4.55-9.29,6.82-13.94,2.26-4.66,4.51-9.32,6.73-14,1.11-2.33,2.21-4.67,3.31-7.02,8.88-18.98,17.36-38.14,25.77-57.34,2.1-4.8,4.18-9.61,6.24-14.42.78-1.81,1.55-3.62,2.31-5.42.77-1.81,1.54-3.62,2.31-5.43,4.61-10.85,9.2-21.71,13.93-32.5.52-1.19,1.04-2.38,1.55-3.58.52-1.19,1.03-2.39,1.54-3.59.91-2.14,1.8-4.27,2.69-6.42,1.62-3.86,3.22-7.74,4.83-11.6,2.01-4.82,4.05-9.62,6.17-14.39.75-1.68,1.51-3.36,2.28-5.03.38-.84.77-1.67,1.16-2.5.39-.84.78-1.67,1.19-2.5.53-1.1,1.07-2.21,1.61-3.31.31-.63.62-1.25.94-1.88.42-.84.85-1.68,1.28-2.51-.02.26-.04.53-.07.79-.03.26-.05.52-.08.78-.14,1.32-.33,2.63-.56,3.93-.11.6-.22,1.2-.34,1.8-.11.55-.23,1.1-.35,1.65-.15.63-.3,1.27-.46,1.9-.08.34-.17.67-.26,1.01-.5,1.92-1.06,3.82-1.65,5.7-.22.71-.44,1.42-.67,2.13-.46,1.41-.93,2.82-1.4,4.23-.35,1.06-.7,2.11-1.04,3.17-.2.62-.4,1.23-.6,1.85-.26.8-.51,1.61-.75,2.41-.15.47-.29.94-.43,1.41-.17.59-.34,1.17-.5,1.76-6.03,21.86-13.88,43-22.61,63.83-14.13,33.73-28.87,67.21-43.3,100.82-4.97,11.58-4.85,11.5,7.25,15.44,64.42,20.96,130.48,29.31,198.08,25.54,12.62-.7,25.2-2.42,37.79-3.71,8.12-.84,15.36-4.17,22.43-8,.28-.15.55-.31.83-.48.43-.25.85-.52,1.28-.78.17-.11.35-.22.53-.33.23-.14.47-.28.71-.42.19-.11.38-.22.58-.33.19-.11.39-.22.59-.31.23-.12.46-.23.7-.33.27-.12.55-.23.83-.33.12-.05.24-.08.36-.12.02-.01.05-.02.08-.02.11-.04.22-.07.33-.1.17-.05.35-.09.52-.13.12-.03.25-.06.37-.07.03-.01.05-.01.08-.01.11-.03.22-.04.34-.06.02,0,.04,0,.06,0,.81-.11,1.69-.12,2.65-.01h0c1.11,6.06-1.54,11.03-2,16.25ZM9452.44,621.08c-48.69,8.78-95.32,24.82-142.06,40.4-43.66,14.56-88.07,26.22-133.41,34.26-1.63.29-3.24.8-4.89.98-5.05.54-6.45-.5-5.47-5.35,3.72-18.28-1.09-15.85,17.23-17.28,13.28-1.03,26.51-2.76,39.44-6.14,15.78-4.14,31.55-8.33,47.28-12.68,6.04-1.67,6.5-2.84,3.66-8.35-.51-.99-1.02-1.98-1.51-2.98-.49-.95-.97-1.91-1.44-2.87h0c-.49-.99-.97-1.97-1.45-2.96-.48-.99-.96-1.97-1.43-2.96-.54-1.14-1.07-2.28-1.6-3.42-.69-1.48-1.37-2.96-2.04-4.45-.86-1.87-1.69-3.75-2.51-5.64-.47-1.06-.92-2.11-1.37-3.17-.02-.03-.03-.05-.03-.08-.34-.79-.68-1.58-1.01-2.37-.56-1.33-1.11-2.66-1.66-3.99-.64-1.54-1.26-3.08-1.88-4.63-.33-.81-.65-1.63-.97-2.44-1.19-3.03-2.36-6.08-3.5-9.14-.54-1.45-1.08-2.9-1.6-4.35-.54-1.45-1.06-2.91-1.57-4.36-1.04-2.91-2.05-5.83-3.04-8.76-1-2.93-1.97-5.86-2.92-8.8-.96-2.95-1.89-5.89-2.8-8.85-.46-1.48-.91-2.95-1.36-4.43-.9-2.96-1.78-5.93-2.65-8.9-.86-2.97-1.71-5.95-2.55-8.93s-1.67-5.97-2.48-8.96c-.5-1.81-.99-3.62-1.47-5.44-.72-2.67-1.42-5.35-2.12-8.04-.33-1.25-.66-2.49-.97-3.74-.46-1.76-.91-3.51-1.36-5.27-5.59-21.92-10.75-43.93-14.98-66.16-.42-2.24-.77-4.49-1.55-9.09,4.21,6,5.96,10.63,6.87,15.37,2.25,11.71,6.06,22.9,9.84,34.17,6.15,18.28,11.54,37,19.94,54.26,1.31,2.69,2.64,5.38,3.98,8.05.18.37.37.74.56,1.11.44.88.88,1.76,1.33,2.64.66,1.31,1.33,2.62,2,3.92,1.26,2.47,2.55,4.94,3.85,7.4l1.11,2.1c.37.7.74,1.4,1.12,2.1.6,1.13,1.21,2.25,1.82,3.37,1.1,2.05,2.22,4.09,3.36,6.12.57,1.04,1.15,2.08,1.74,3.12,1.47,2.62,2.96,5.22,4.47,7.82.34.57.67,1.15,1.01,1.73,1.53,2.61,3.08,5.21,4.65,7.8.42.7.84,1.4,1.27,2.09.78,1.28,1.57,2.56,2.37,3.84.98,1.57,1.96,3.13,2.96,4.7,1,1.56,2,3.12,3.01,4.67s2.02,3.1,3.05,4.64c.32.48.65.97.98,1.45.32.49.65.97.98,1.45,3.71,5.5,7.52,10.95,11.08,16.54.33.52.66,1.04.99,1.56.48.76.95,1.52,1.42,2.29,3.07,5.05,6.35,5.57,11.57,3.31,17.12-7.42,34.66-13.7,52.92-17.88,9.13-2.09,18.44-2.78,27.6-4.5,2.18-.41,5.09.04,5.78-2.81.56-2.35-1.93-3.16-3.41-4.38-31.84-26.31-61.98-54.48-91.64-83.19-15.31-14.81-30.45-29.79-45.59-44.78-.71-.71-1.48-1.38-2.24-2.06-.25-.23-.5-.45-.75-.69-.31-.29-.62-.58-.91-.89-.18-.18-.36-.37-.52-.56-.12-.12-.24-.26-.34-.39-.14-.16-.27-.33-.39-.49-.07-.1-.15-.2-.22-.3-.05-.07-.1-.13-.14-.2-.08-.12-.16-.24-.23-.36-.09-.13-.17-.27-.24-.41-.04-.07-.08-.14-.11-.21-.19-.35-.36-.72-.5-1.1-.09-.22-.16-.45-.23-.69.09-.11.19-.21.28-.29.23-.23.46-.4.68-.53.06-.04.11-.07.17-.09.12-.07.24-.12.36-.14.09-.02.17-.04.25-.06.09-.01.18-.02.26-.02.1,0,.21.01.31.03.02,0,.03,0,.05.01.09.03.18.05.27.08.09.03.17.06.26.1.31.13.6.33.88.56.18.14.36.29.53.45.23.2.46.41.68.59,19.54,16.03,38.78,32.44,58.63,48.07,11.72,9.23,24.38,17.29,36.66,25.82,1.71,1.19,3.41,2.38,5.12,3.57,10.32,7.19,20.62,14.41,31.1,21.34,1.04.7,2.09,1.39,3.14,2.07,1.5.99,3.01,1.96,4.52,2.93.85.55,1.7,1.08,2.56,1.63,2.11,1.34,4.22,2.66,6.35,3.95,1.48.91,2.97,1.81,4.47,2.7.27.16.54.32.81.48.27.16.54.32.81.48.89.53,1.79,1.05,2.69,1.56.64.37,1.28.74,1.92,1.1,1.06.61,2.13,1.21,3.2,1.8l.06.04s.02.02.03.02c0,.01,0,.01,0,.01h.01s.01,0,.01,0c6.16,4.27,12.32,8.54,18.47,12.81,6.22,4.33,12.43,8.65,18.65,12.96-1.72,2.97-4.15,3.17-6.33,3.57ZM9550.79,316.91c.01-.14.03-.29.06-.44.03-.16.06-.32.1-.48.02-.12.06-.24.09-.36.25-.9.65-1.9,1.18-2.93.18-.36.38-.73.59-1.1.22-.39.46-.78.71-1.17.38-.59.78-1.17,1.21-1.74.28-.38.57-.76.87-1.13.3-.37.6-.73.92-1.08.23-.26.47-.51.71-.76.24-.25.49-.49.73-.72.67-.64,1.35-1.21,2.03-1.69.14-.1.28-.2.42-.28.16-.11.32-.21.49-.3.32-.19.64-.36.95-.49.16-.07.32-.13.47-.18,1.74-.6,3.3-.29,4.7.72,5.92,4.28,11.8,8.62,17.71,12.92,2.48,1.81,2.28,3.89.47,5.92-2.87,3.22-5.7,6.5-8.86,9.42-4.8,4.46-9.88,5.65-16.33,2.39-.32-.16-.62-.32-.92-.49-.24-.13-.47-.27-.69-.4-.35-.21-.68-.42-1-.65-.07-.05-.13-.09-.2-.14-.06-.04-.13-.08-.19-.14-.13-.09-.26-.19-.38-.28-.2-.15-.39-.31-.58-.47-.18-.15-.36-.31-.54-.48-.09-.08-.18-.16-.27-.25l-.25-.25c-.07-.07-.14-.14-.2-.22-.13-.12-.24-.25-.35-.38-.11-.12-.21-.25-.31-.37-.21-.26-.41-.53-.6-.8-.42-.6-.79-1.23-1.11-1.9-.12-.25-.23-.51-.34-.78s-.21-.54-.3-.81c-.09-.25-.17-.51-.24-.78-.08-.26-.15-.53-.21-.8-.04-.17-.08-.34-.11-.52-.07-.28-.12-.57-.16-.87-.07-.4-.12-.81-.16-1.23-.01-.06-.02-.12-.02-.19-.03-.26-.05-.52-.06-.78-.02-.29-.03-.58-.04-.88-.01-.2-.01-.4-.01-.61,0-.2,0-.41,0-.62,0-.14,0-.28.03-.43ZM9511.21,459.79c-.15,3.01-.29,6.02-.42,9.03-.02.29-.03.59-.04.88-.17,3.62-.32,7.25-.46,10.87,0,.22-.02.44-.03.65-.06,1.37-.11,2.75-.16,4.12-.12,2.99-.23,5.99-.32,8.98-.05,1.23-.09,2.45-.13,3.67-.09,2.54-.17,5.09-.24,7.64-.08,2.54-.15,5.09-.22,7.64-.03,1-.06,2-.08,3-.11,4.01-.2,8.01-.28,12.02-.03,1.26-.05,2.52-.07,3.78-.03,1.38-.06,2.75-.08,4.12-.05,2.55-.09,5.1-.13,7.65-.04,2.87-.08,5.74-.11,8.62-.08,6.74-.13,13.48-.15,20.21,0,2.97-.02,5.95-.02,8.92,0,3.14.01,6.27.02,9.4,0,1.49,0,2.97.01,4.46,0,1.96.02,3.68,0,5.18v.22c0,.2-.01.4-.01.59,0,.41-.02.81-.04,1.19-.02.39-.04.75-.06,1.1-.03.52-.08,1.02-.14,1.48-.03.21-.06.41-.09.61-.03.2-.07.4-.11.59-.04.19-.08.37-.13.55-.04.17-.09.34-.15.51-.05.16-.11.32-.17.47-.06.16-.12.31-.19.45-.07.15-.15.3-.24.44-.09.15-.19.29-.29.44-.18.26-.39.49-.63.71-.05.05-.11.1-.17.15-.4.36-.86.66-1.4.92-.16.09-.33.17-.51.24-.01.01-.02.02-.04.02-.14.06-.28.12-.43.17-.09.04-.18.08-.28.1-.28.11-.58.2-.89.29-.23.08-.48.14-.73.2-.15.05-.31.08-.47.12-.47.12-.96.23-1.49.33-.31.07-.63.13-.97.19-.18.04-.37.07-.57.1-.28.05-.56.1-.86.15-.24.05-.48.09-.73.13-.5.08-1.02.17-1.56.25-.27.04-.54.09-.83.13-.42.07-.87.14-1.32.21-6.01.94-9.47,1.83-11.69,1.68-.17-.01-.33-.02-.48-.05-.1-.01-.19-.03-.27-.05-.09-.02-.17-.04-.25-.06-.36-.1-.68-.24-.97-.44-.08-.05-.17-.11-.24-.18-.05-.04-.1-.08-.15-.13-.1-.09-.2-.19-.29-.3-.14-.16-.27-.34-.4-.54s-.25-.41-.37-.65c-.12-.24-.24-.5-.35-.78-.05-.14-.11-.29-.17-.44-.23-.61-.45-1.3-.68-2.1-.06-.2-.12-.42-.18-.64-.09-.31-.18-.64-.27-.98-.1-.37-.21-.76-.32-1.17-.14-.54-.29-1.12-.45-1.73-.05-.2-.11-.41-.16-.62-.04-.15-.07-.3-.12-.45-.2-.75-.41-1.55-.64-2.4-3.75-13.97-7.49-27.95-11.22-41.93-11.2-41.94-22.33-83.89-33.48-125.84-2.39-8.99-1.92-9.7,7.54-10.04,17.43-.62,34.14-5.36,51.07-8.81,5.02-1.02,8.85-4.46,12.5-7.94,2.16-2.06,4.29-4.2,6.66-6,.16-.12.32-.23.48-.33.16-.1.31-.19.46-.26.08-.04.17-.08.25-.11.12-.05.23-.09.34-.13.03-.02.05-.03.07-.03.05-.02.1-.03.15-.04.05-.02.1-.03.15-.04.19-.04.38-.06.57-.06.12,0,.23.01.34.03.04,0,.09.01.13.02.06.01.12.02.18.05h.01c.1.04.2.08.3.13.1.04.19.1.28.17.08.06.16.13.24.2.06.06.12.12.17.18.39.45.66,1.09.81,1.9.02.12.03.24.05.36.03.27.07.55.11.83.04.28.07.56.1.84.07.56.13,1.11.19,1.66.09.85.18,1.7.26,2.53.37,3.82.63,7.33.87,9.9.66,15.15-2.08,27.94-2.72,40.9ZM9581.06,601.51c-.03.24-.09.47-.17.68-.03.09-.08.19-.13.28-.03.06-.06.11-.1.16-.08.13-.17.25-.29.36-.06.07-.13.14-.21.2-.05.05-.1.09-.16.13-.13.1-.27.19-.42.27-.12.07-.25.13-.38.19-.11.04-.21.09-.32.13-.1.04-.2.07-.31.11-.22.06-.44.13-.68.18-.12.03-.25.06-.37.08-.2.04-.4.07-.61.1-.24.04-.48.06-.74.09-8.61.86-17.21,1.89-25.82,2.77-8.61.88-17.22,1.83-25.85,2.44-6.72.48-7.31-.28-7.12-7.2.06-1.99.05-4.02.44-5.96.7-3.51,1.41-7.02,2.14-10.53.29-1.41.58-2.83.88-4.24.71-3.42,1.43-6.84,2.16-10.26.53-2.49,1.06-4.98,1.61-7.47.27-1.28.55-2.56.84-3.85.3-1.39.61-2.79.92-4.18.06-.32.13-.64.21-.96.15-.71.31-1.42.48-2.13.37-1.67.74-3.34,1.12-5.01.4-1.82.82-3.63,1.24-5.45.25-1.11.5-2.22.76-3.33.62-2.71,1.25-5.43,1.89-8.15.58-2.52,1.18-5.04,1.79-7.57,1.5-6.31,3.04-12.64,4.62-19,.37.21.7.43,1,.65.11.08.21.16.31.24.1.07.2.16.29.24.14.12.28.25.4.37.02.02.03.03.04.04.12.12.23.24.33.36.23.26.43.53.6.79.07.1.13.2.19.3.07.1.12.2.17.3.06.09.11.19.15.28.06.11.11.22.15.32.05.11.1.22.15.34.05.11.09.22.14.33.09.23.17.45.25.67.1.27.2.54.29.81l.15.39c2.7,6.89,5.45,13.76,8.25,20.6,1.09,2.65,2.18,5.3,3.29,7.94.35.86.71,1.73,1.08,2.59,1.39,3.32,2.79,6.64,4.2,9.95,1.65,3.88,3.32,7.76,5.01,11.63,1.26,2.92,2.54,5.82,3.82,8.73,1.15,2.62,2.32,5.24,3.49,7.86.71,1.61,1.43,3.21,2.15,4.81,1.13,2.53,2.27,5.06,3.42,7.59.82,1.82,1.48,3.71,2.37,5.5.72,1.44,1,2.59.89,3.49ZM9705.69,426.59c-6.05-5.69-11.89-11.62-17.85-17.41h0l-.21-.21c-.42-.43-.8-.85-1.09-1.29-.11-.14-.2-.29-.27-.44-.07-.11-.13-.22-.17-.33-.04-.11-.09-.23-.13-.34-.04-.09-.06-.18-.08-.27-.03-.09-.04-.19-.05-.29-.02-.12-.03-.24-.03-.36,0-.78.34-1.59,1.17-2.44,5.51-5.67,8.95-13.09,15.66-19.05,5.25,16.02,9.9,31.31,12.13,47.75-4.76-.23-6.77-3.15-9.07-5.32ZM9735.29,597.97c-11.97.17-23.93.35-35.9.28-7.15-.04-7.66-.79-5.07-7.51.77-2.02,1.55-4.03,2.34-6.04.78-2.01,1.57-4.02,2.36-6.03s1.58-4.01,2.38-6.02c.8-2,1.6-4.01,2.4-6.01l3.69-9.12c.91-2.25,1.83-4.5,2.76-6.75,1.5-3.65,3.01-7.29,4.53-10.94,2.55-6.14,5.12-12.27,7.72-18.39,1.87-4.42,3.74-8.83,5.62-13.24,1.88-4.41,3.77-8.81,5.66-13.22.31-.72.61-1.45.9-2.18.46-1.13.9-2.28,1.37-3.44.19-.49.39-.99.6-1.48.25-.63.52-1.26.8-1.9.17-.38.34-.76.52-1.14.18-.4.36-.79.56-1.19.15-.3.3-.6.45-.9.15-.3.31-.6.48-.9.79-1.48,1.7-2.99,2.77-4.53.24-.35.5-.71.76-1.07.08.83.17,1.61.25,2.35s.15,1.43.23,2.09c.09.88.18,1.71.27,2.49.04.4.07.78.11,1.16.07.76.12,1.5.17,2.24,1.51,23.85,3.02,47.7,4.5,71.55.5,7.95.99,15.9,1.47,23.85.93,15.33.47,15.79-14.7,15.99ZM9421.62,591.72s0,.01,0,.01h0s0-.01,0-.01ZM9743.24,478.6c.08.74.15,1.43.23,2.09-.07-.66-.15-1.35-.23-2.09Z"/>
      <path class="cls-1" d="M9420,589.47c.3.31.59.64.86,1-.26-.36-.56-.69-.86-1ZM9420.86,590.48c.26.36.51.75.73,1.16-.21-.42-.46-.8-.73-1.16ZM9421.6,591.65h-.01s-.07-.03-.1-.04h-.01l.05.05.06.04s.02.02.03.02h0s-.02-.05-.02-.07ZM9421.62,591.72s0,.01,0,.01h0s0-.01,0-.01ZM9421.63,591.73h.01s0,0,0,0h-.01Z"/>
      <path class="cls-1" d="M5808.74,846.71c-8.1.76-16.08-.19-24.03-1.61,8.05-.14,16.19-1.5,24.03,1.61Z"/>
      <path class="cls-1" d="M5774.67,844.64c-6.08.72-12.04-.1-17.94-1.53,6.05-.23,12.15-1.18,17.94,1.53Z"/>
      <path class="cls-1" d="M5728.69,840.73c-5.45.68-10.74-.19-15.98-1.61,5.41-.28,10.87-1.08,15.98,1.61Z"/>
      <path class="cls-1" d="M5750.74,842.72c-5.48.61-10.84-.01-16.1-1.57,5.45-.34,10.95-1.16,16.1,1.57Z"/>
      <path class="cls-1" d="M5708.74,838.81c-4.85.63-9.54-.08-14.14-1.63,4.82-.41,9.66-.97,14.14,1.63Z"/>
      <path class="cls-1" d="M5594.74,824.86c-4.15.6-8.1-.31-11.97-1.72,4.13-.37,8.24-.66,11.97,1.72Z"/>
      <path class="cls-1" d="M5638.75,830.67c-4.14.64-8.07-.29-11.96-1.56,4.1-.39,8.21-.76,11.96,1.56Z"/>
      <path class="cls-1" d="M5656.71,832.77c-4.17.57-8.16-.17-12.07-1.58,4.15-.44,8.29-.79,12.07,1.58Z"/>
      <path class="cls-1" d="M5688.69,836.68c-4.12.62-8.03-.3-11.91-1.57,4.09-.37,8.18-.75,11.91,1.57Z"/>
      <path class="cls-1" d="M5522.79,814.69c-3.51.61-6.79-.29-10.02-1.53,3.48-.43,6.92-.55,10.02,1.53Z"/>
      <path class="cls-1" d="M5538.75,816.87c-3.57.53-6.98-.02-10.23-1.58,3.57-.52,7.07-.55,10.23,1.58Z"/>
      <path class="cls-1" d="M5550.76,818.69c-3.49.6-6.75-.24-9.93-1.57,3.45-.39,6.87-.51,9.93,1.57Z"/>
      <path class="cls-1" d="M5564.73,820.74c-3.49.61-6.73-.33-9.92-1.61,3.46-.39,6.86-.48,9.92,1.61Z"/>
      <path class="cls-1" d="M5578.77,822.72c-3.52.6-6.83-.21-10.05-1.55,2.31-.3,4.59-.44,6.77.1.07,0,.14.03.21.05.24.07.47.14.7.22.81.27,1.6.66,2.37,1.18Z"/>
      <path class="cls-1" d="M5608.75,826.81c-3.58.58-7,.03-10.26-1.55,3.58-.52,7.08-.58,10.26,1.55Z"/>
      <path class="cls-1" d="M5622.71,828.7c-3.5.52-6.8-.19-10.01-1.52,3.48-.44,6.92-.6,10.01,1.52Z"/>
      <path class="cls-1" d="M5670.75,834.58c-3.52.66-6.84-.11-10.07-1.43,3.48-.45,6.93-.61,10.07,1.43Z"/>
      <path class="cls-1" d="M6330.23,351.89c-.08.77-.17,1.54-.26,2.32-.61-.85-.5-1.62.26-2.32Z"/>
      <path class="cls-1" d="M9288.72,612.76c.65.97,1.29,1.94,1.95,2.9-.66-.96-1.31-1.93-1.96-2.9-1.03-1.54-2.04-3.09-3.05-4.64,1.01,1.55,2.03,3.1,3.06,4.64Z"/>
      <polygon class="cls-1" points="9421.49 591.61 9421.49 591.62 9421.48 591.61 9421.49 591.61"/>
      <path class="cls-1" d="M9421.49,591.62s.09.06.13.09h-.03s-.1-.09-.1-.09Z"/>
      <polygon class="cls-1" points="9421.62 591.71 9421.63 591.72 9421.62 591.72 9421.62 591.71"/>
      <path class="cls-1" d="M9440.12,604.55c-6.15-4.27-12.31-8.54-18.47-12.81h-.02v-.02h.01c6.16,4.28,12.32,8.56,18.48,12.83Z"/>
      <path class="cls-1" d="M9508.31,595.45c.01,2.32.02,4.29-.02,5.99.04-1.69.02-3.67.01-5.99-.01-1.49-.01-2.97-.01-4.46.01,1.49.01,2.97.02,4.46Z"/>
      <path class="cls-1" d="M9512.41,403.13c.04.28.07.56.1.83-.04-.28-.08-.56-.11-.83-.02-.12-.03-.24-.05-.36.02.12.04.24.06.36Z"/>
      <path class="cls-2" d="M4710.38,370.53c.92.14,1.77.28,2.57.44-.79-.15-1.65-.3-2.57-.44Z"/>
      <path class="cls-2" d="M4717.66,372.39c.7.32,1.31.68,1.86,1.11-.55-.42-1.17-.79-1.86-1.11Z"/>
      <path class="cls-2" d="M4723.94,383.13c.12.64.23,1.32.34,2.03-.11-.71-.23-1.39-.34-2.03Z"/>
      <path class="cls-2" d="M4727.66,411.76c-.76-6.23-1.53-12.47-2.31-18.7-.07-.53-.13-1.04-.19-1.54.07.5.13,1.02.2,1.55.78,6.23,1.55,12.46,2.3,18.69Z"/>
      <path class="cls-2" d="M4575.34,561.23c.38-4.56-.2-9.16-1.86-13.48-1.21-3.12-2.67-6-4.41-8.6,1.75,2.6,3.22,5.48,4.42,8.6,1.66,4.32,2.23,8.92,1.85,13.48Z"/>
      <path class="cls-1" d="M9748.52,558.13c-1.48-23.85-2.99-47.7-4.5-71.55-.05-.74-.1-1.48-.17-2.24.07.76.13,1.5.18,2.24,1.51,23.85,3.02,47.7,4.49,71.55Z"/>
      <path class="cls-1" d="M9581.06,601.51c-.03.24-.08.47-.17.68.08-.21.14-.44.17-.68Z"/>
      <path class="cls-2" d="M4828.49,626.84c-.07-.21-.14-.42-.22-.64-.17-.48-.35-.96-.54-1.43.2.47.38.95.55,1.43.08.21.15.43.21.64Z"/>
      <path class="cls-1" d="M4830,529.27c-.05-.47-.05-.97.01-1.52-.05.54-.05,1.05-.01,1.52Z"/>
      <path class="cls-1" d="M4873.38,528.65c.23.27.41.56.56.86-.16-.31-.34-.6-.56-.86Z"/>
      <path class="cls-2" d="M6360.95,326.31c-.28.1-.62.35-.8.26-.19-.09-.23-.5-.33-.78.27-.09.55-.19.82-.29.1.27.21.54.31.81Z"/>
      <circle class="cls-3" cx="6364.76" cy="360.76" r="36.27"/>
      <circle class="cls-3" cx="5970.08" cy="616.07" r="52.4"/>
      <circle class="cls-3" cx="3439.95" cy="157.31" r="50.88"/>
      <circle class="cls-3" cx="4239.81" cy="200.77" r="35.32"/>
      <rect class="cls-3" x="4911.99" y="336.84" width="44.64" height="24" rx="12" ry="12" transform="translate(200.1 -1085.16) rotate(12.81)"/>
      <rect class="cls-3" x="4822.85" y="411.27" width="73.78" height="24" rx="12" ry="12" transform="translate(214.75 -1066.78) rotate(12.81)"/>
      <rect class="cls-3" x="4860.24" y="376.01" width="110.85" height="25.48" rx="12" ry="12" transform="translate(208.49 -1080.04) rotate(12.81)"/>
    </g>
  </g>
</svg>