<?xml version="1.0" encoding="UTF-8"?>
<svg id="Camada_2" data-name="Camada 2" xmlns="http://www.w3.org/2000/svg" viewBox="0 0 1629.15 1202.56">
  <defs>
    <style>
      .cls-1 {
        fill: #0c9092;
        stroke-width: 0px;
      }
    </style>
  </defs>
  <g id="Layer_1" data-name="Layer 1">
    <g>
      <path class="cls-1" d="M43.2,682.02c-.23-1.82-.4-3.63-.52-5.42.11,1.8.28,3.6.51,5.42.03.16.06.32.1.48-.03-.16-.06-.32-.09-.48ZM90.7,628.98h.01c.72-.85,1.42-1.72,2.11-2.6-.7.88-1.4,1.75-2.12,2.6ZM111.55,593.81c-.23-.03-.46-.05-.69-.06.23.02.47.04.7.07.08,0,.16.03.24.06-.08-.03-.17-.06-.25-.07ZM164.65,589.34s-.05.06-.08.1c.03-.04.06-.06.09-.09.05-.05.09-.1.13-.15-.05.05-.09.09-.14.14ZM169.86,458.78c-.13-.83-.26-1.66-.39-2.49.13.83.25,1.66.38,2.49.34,2.22.61,4.44.82,6.65-.2-2.21-.47-4.43-.81-6.65ZM248.49,732.82c-.14-.01-.29-.03-.43-.04.14.02.28.04.43.05,5.68.49,11.18.23,16.49-.76-5.31.98-10.8,1.24-16.49.75ZM268.7,731.26c1.09-.27,2.17-.58,3.25-.92-1.08.33-2.16.64-3.25.92ZM273.03,729.99c1.07-.35,2.13-.74,3.18-1.16-1.05.41-2.11.8-3.18,1.16ZM284.19,512.43c-3.42-2.31-6.73-4.7-9.94-7.18,3.21,2.49,6.52,4.88,9.94,7.19.65.44,1.3.87,1.95,1.29-.65-.43-1.3-.86-1.95-1.3ZM305.74,524.94c-.93-.46-1.86-.93-2.79-1.4.93.48,1.86.95,2.79,1.41.74.37,1.48.76,2.21,1.16-.73-.41-1.47-.8-2.21-1.17ZM337.82,529.55h0c.25-.19.5-.39.74-.59-.24.2-.49.4-.74.59ZM368.65,553.4c.08.18-.08.55-.24.74-.04.05-.09.1-.15.16.06-.05.12-.11.16-.16.16-.19.32-.56.23-.74ZM414.02,522.92c1.24.57,2.47,1.19,3.68,1.83-1.21-.65-2.44-1.26-3.68-1.83Z"/>
      <path class="cls-1" d="M1620.65,449.23c-9.71-43.69-27.28-83.8-54.18-119.63-23.95-31.9-53.37-57.64-88.26-77.03-32.84-18.26-68.02-29.27-105.32-33.38-22.66-2.49-45.29-2.23-67.9,1.26-33,5.09-63.64,16.42-92.12,33.74-1.34.81-2.47,1.95-3.7,2.94-4.65.21-4.63.21-5.44-3.15-.44-1.86-.78-3.76-1.46-5.54-3.28-8.7-9.44-14.18-18.49-16.53-4.42-1.14-8.87-1.01-13.34-.92-10.54.21-21.08.61-31.63.76-17.26.24-34.52.38-51.79.51-19.5.15-39.01.23-58.51.37-7.03.05-14.08-.07-21.1.28-14.68.72-25.01,11.12-25.83,25.8-.2,3.5-.08,7.03-.06,10.55.15,24.62.33,49.24.48,73.86.11,19.51.18,39.01.3,58.52.13,20.78.32,41.56.43,62.34.11,21.43.16,42.85.23,64.28.12,39.33.24,78.66.37,118,.14,41.57.28,83.14.44,124.71.07,19.51.17,39.01.3,58.52.14,20.78-.06,41.56.38,62.34.48,22.38.25,44.77.29,67.16.08,34.21.12,68.43.19,102.65.04,17.91.11,35.82.17,53.72.01,2.24-.05,4.49.12,6.72,1.01,13.7,11.37,23.76,25.02,24.3,2.24.09,4.48.05,6.72.03,30.69-.24,61.38-.47,92.08-.74,21.09-.18,42.19-.38,63.29-.62,5.43-.06,10.87-.22,16.3-.45,12.28-.51,23.15-11.67,23.43-23.71.09-3.83.11-7.67.07-11.51-.16-17.58-.35-35.17-.53-52.76-.23-22.06-.39-44.12-.69-66.18-.23-16.62-.75-33.24-.95-49.86-.39-32.29-.65-64.58-.97-96.88-.03-2.88-.13-5.76.73-8.56,1.99-.1,3.73.66,5.51,1.43,21.06,9.11,43.23,13.76,65.98,15.49,27.82,2.13,55.55,1.23,83.2-3.09,24.75-3.88,48.77-10.26,72-19.56,46.27-18.53,85.83-46.53,118.16-84.56,25.38-29.84,43.92-63.54,56.44-100.6,11.66-34.52,17.32-70.07,18.06-106.43.61-29.84-1.94-59.4-8.42-88.59ZM1380.86,554.42c-.67,11.9-2.97,23.47-6.47,34.8-3.23,10.44-7.8,20.27-13.9,29.38-11.2,16.72-26.17,28.77-44.82,36.21-10.44,4.16-21.26,6.87-32.49,7.94-7.01.67-13.99,1.54-21.05,1.27-9.92-.37-19.76-1.32-29.55-3.04-6.85-1.2-12.87-3.69-17.54-8.99-.41-.46-1.02-.75-1.54-1.11-.19-.61-.26-1.29-.59-1.8-3.25-5.05-4.01-10.67-3.95-16.51.05-4.47,0-8.94,0-13.41v-162.82c0-1.6.09-3.2-.01-4.79-.55-8.27,1.2-15.85,6.47-22.43.18-.24.23-.59.34-.89,5.9-4.58,12.77-7.16,19.78-9.39,9.19-2.9,18.62-4.66,28.2-5.46,16.14-1.36,31.97.59,47.26,5.9,20.32,7.05,36.33,19.81,48.3,37.67,9.96,14.84,15.87,31.28,19.22,48.73,3.1,16.13,3.25,32.4,2.34,48.74Z"/>
      <path class="cls-1" d="M955.69,270.26c-.05,36.77-.16,73.54-.28,110.32-.09,30.05-.22,60.11-.32,90.17-.13,42.85-.25,85.7-.38,128.55-.06,21.74-.16,43.49-.19,65.23-.08,50.53-.16,101.05-.18,151.58,0,14.06.16,28.13.35,42.2.28,19.56-1.46,38.97-4.44,58.27-1.12,7.25-2.74,14.44-4.21,21.64-.18.9-.79,1.73-1.2,2.59-.12,1.58-.02,3.22-.41,4.73-11.97,47.26-33.33,89.72-65.03,126.87-28.17,33.02-61.88,59.08-100.06,79.48-32.89,17.58-67.65,30.15-103.97,38.55-16.52,3.82-33.21,6.7-50.02,8.82-15.23,1.92-30.55,2.76-45.91,3.15-15.35.39-30.68-.04-45.99-.85-13.09-.7-26.11-2.31-39.08-4.26-20.25-3.04-40.24-7.33-59.91-13.03-52.5-15.2-100.73-38.82-143.07-73.7-44.93-37-77.83-82.63-97.81-137.43-7.37-20.19-12.72-40.91-15.99-62.12-2.83-18.34-4.11-36.85-4.46-55.41-.52-27.82-.14-55.64.65-83.45.12-4.48.52-8.94.71-13.41.57-12.87-.76-11.1,11.91-9.69,11.11,1.23,22.14,3.2,33.21,4.79,6.96,1,13.93,1.94,20.9,2.85,1.98.26,3.65,1.03,5.14,2.33,3.86,3.35,7.62,6.84,11.65,9.98,8.88,6.95,18.69,12.34,29.41,15.84,22.47,7.35,44.21,5.13,64.97-5.93,16.52-8.8,29.28-21.51,37.89-38.24.59-1.13,1.12-2.3,1.69-3.44,1.48-2.97,3.78-5.13,6.68-6.66,1.41-.75,2.86-1.49,4.38-1.94,5.5-1.61,11.04-3.1,16.57-4.63.77-.21,1.29.06,1.51.83.26.9.65,1.8.72,2.73.56,6.69,1.26,13.37,1.52,20.07.8,20.14.45,40.29.25,60.44-.14,14.7-.23,29.42-.06,44.13.12,11.51,1.41,22.94,3.18,34.34,3.65,23.46,15.73,41.54,34.43,55.56,9.78,7.33,20.47,13.06,31.83,17.54,15.23,6.02,31.03,9.8,47.24,12.11,16.24,2.31,32.53,2.71,48.81,1.5,29.7-2.21,57.96-9.61,83.67-25.22,11.57-7.02,21.86-15.56,30.37-26.16,12.32-15.34,19.68-32.72,22.01-52.31.95-7.97,1.16-15.9,1.01-23.91-.61-32.61-1-65.22-1.49-97.83-.39-25.9-.8-51.79-1.17-77.69-.02-1.25.31-2.51.47-3.77-.96-6.02-.67-12.11-.77-18.16-.46-28.45-.85-56.91-1.24-85.36-.34-25.89-.66-51.79-.96-77.68-.25-21.74-.36-43.48-.7-65.22-.17-10.23-.82-20.44-1.07-30.67-.34-13.75-.14-27.49,1.65-41.17,1.7-13.08,4.84-25.73,10.55-37.68,7.04-14.75,17.43-26.67,30.55-36.32,11.95-8.8,25.14-15.22,39.06-20.14,16.01-5.65,32.48-9.46,49.23-12.23,12.64-2.08,25.33-3.58,38.07-4.63,11.46-.95,22.98-1.28,34.48-1.69,3.17-.12,6.4.21,9.53.75,9.9,1.69,21.4,9.66,23.4,23.58.5,3.47.73,7,.72,10.51Z"/>
      <path class="cls-1" d="M457.31,576.55c-4.55-19.55-15.01-35.1-31.32-46.67-.77-.55-1.54-1.08-2.32-1.59-.78-.51-1.57-1.01-2.36-1.49-.8-.48-1.59-.94-2.4-1.39-.4-.23-.8-.45-1.21-.66-1.21-.65-2.44-1.26-3.68-1.83-.82-.39-1.65-.75-2.49-1.1-8.38-3.52-17.31-5.42-26.75-5.79-15.77-.61-30.43,2.99-43.92,11.23-.81.5-1.55,1.1-2.3,1.7-.24.2-.49.4-.74.59h0c-.08.07-.15.15-.22.23-.49.65-.29,1.73.46,2,.52.19,1.05.38,1.58.57,1.05.37,2.11.74,3.15,1.13.53.2,1.05.4,1.56.61,9.03,3.72,16.82,9.15,22.96,16.82.15.18.28.37.4.57.18.3.34.62.49.94.11.22.21.44.3.66.05.1.1.21.15.32.08.18-.08.55-.24.74-.04.05-.09.1-.15.16s-.12.11-.19.16c-.16.12-.32.2-.39.16-2.54-1.32-5.09-2.64-7.57-4.07-20.44-11.75-42.1-14.16-64.82-8.5-2.78.69-5.58,1.26-8.37,1.89-.49.87-1.29,1.16-2.22,1.1-.27-.01-.57-.14-.78-.31-.43-.37-.29-.86.41-1.24.51-.27,1.09-.41,1.63-.62.42-.46.82-.97,1.22-1.45.21-.24.41-.47.64-.69.21-.22.45-.42.7-.59,2.57-1.74,5.24-3.27,8.01-4.57.79-.37,1.59-.73,2.4-1.06,2.82-1.17,5.75-2.11,8.79-2.8,1.53-.35,3-.95,4.47-1.5.06-.02.12-.07.17-.12.16-.17.27-.45.31-.68.02-.1,0-.24-.04-.37-.06-.16-.15-.3-.25-.36l-2.25-1.32c-.72-.42-1.45-.84-2.18-1.25-.73-.41-1.47-.8-2.21-1.17-.93-.46-1.86-.93-2.79-1.4-.92-.48-1.84-.96-2.76-1.45-2.75-1.47-5.45-3.01-8.12-4.62-2-1.21-3.98-2.45-5.93-3.74-.65-.43-1.3-.86-1.95-1.3-3.42-2.31-6.73-4.7-9.94-7.18-1.92-1.49-3.81-3.01-5.65-4.56-4.1-3.45-8.01-7.06-11.72-10.82-15.59-15.81-27.71-34.42-36.08-56.04-.95-2.45-1.8-4.95-2.66-7.44-.29-.83-.58-1.66-.87-2.49-.39-1.12-.81-1.93-1.32-2.45-.06-.07-.12-.13-.19-.19-.8-.68-1.84-.73-3.4-.3-9.84,2.75-19.68,5.54-29.52,8.32-4.3,1.22-8.62,2.39-12.9,3.69-4.31,1.31-4.79,2.05-3.76,6.03.84,3.26,1.5,6.54,2.08,9.84.44,2.48.82,4.96,1.21,7.45.13.83.25,1.66.38,2.49.34,2.22.61,4.44.82,6.65h0c.05.56.1,1.11.14,1.67.09,1.1.16,2.21.21,3.31.03.55.05,1.11.07,1.66.39,10.89-.69,21.72-2.62,32.51-2.55,14.22-7.12,27.84-13.24,40.94-.32.69-.65,1.38-.98,2.06-.65,1.37-1.33,2.74-2.02,4.09-.34.67-.69,1.35-1.04,2.02-.7,1.35-1.42,2.68-2.15,4.01-3.66,6.64-7.67,13.08-12.01,19.34-1.45,2.09-2.77,4.28-4.12,6.43-.4.64.46,2.15,1.18,2.1,2.15-.17,4.28-.39,6.43-.54.72-.05,1.43-.1,2.15-.13,4.81-.21,9.59-.18,14.25.74.96.18,1.92.41,2.87.69.54.15,1.08.31,1.62.5.61.21,1.21.43,1.81.68.34.14.69.29,1.03.45.18.08.32.17.44.27.34.29.36.63.1.97-.05.05-.09.09-.14.14-.03.03-.05.06-.08.1-.03.03-.05.06-.08.1-.05.08-.1.15-.15.22-.1.13-.21.24-.33.26-3.8.44-7.62.8-11.42,1.23-1.87.21-3.71.47-5.54.79-1.14.19-2.27.41-3.39.66-1.12.24-2.24.5-3.35.79-.44.11-.88.23-1.32.35-.88.24-1.75.5-2.62.77h-.01c-.86.27-1.73.55-2.58.85-4.29,1.49-8.44,3.34-12.46,5.55-.8.45-1.59.9-2.39,1.37-2.37,1.42-4.69,2.97-6.96,4.65-3.23,2.39-6.26,4.99-9.1,7.78-.71.7-1.41,1.41-2.1,2.13-2.07,2.16-4.03,4.43-5.89,6.8-.69.88-1.37,1.76-2.06,2.64-.7.88-1.4,1.75-2.12,2.6-.09.11-.24.17-.42.21-.12.02-.25.03-.38.04-.2.01-.41.01-.59.03-.04,0-.23-.6-.17-.88.76-3.18,1.81-6.17,3.13-9.01.29-.63.59-1.25.91-1.86.32-.61.65-1.22.99-1.82.34-.6.69-1.19,1.06-1.78,1.64-2.63,3.5-5.11,5.55-7.49.45-.53.91-1.05,1.39-1.57.95-1.03,1.93-2.05,2.94-3.03.5-.51,1.01-1,1.53-1.48,1.85-1.74,3.73-3.44,5.55-5.2.04-.04.07-.1.09-.17.03-.11.03-.24.02-.38,0-.07-.02-.15-.03-.22-.01-.06-.03-.11-.05-.16-.03-.07-.1-.14-.18-.2-.07-.05-.15-.09-.24-.13-.08-.03-.17-.06-.25-.07-.23-.03-.46-.05-.69-.06-.41-.03-.83-.03-1.24-.01-.19.01-.39.02-.59.04-.45.04-.89.1-1.33.18-.07.01-.13.02-.2.03-.13.03-.27.05-.4.08-.27.05-.54.11-.8.18-.56.13-1.12.27-1.68.42-.33.09-.66.18-.99.27-.49.13-.99.26-1.48.37-34.58,8-60.84,39.52-59.6,78.62.03.89.08,1.77.13,2.67.11,1.8.28,3.6.51,5.42.03.16.06.32.1.48.02.16.06.31.09.47.31,1.71.67,3.4,1.07,5.05.24.98.49,1.95.75,2.91s.54,1.91.83,2.85c.3.98.61,1.94.95,2.88.45,1.33.94,2.63,1.46,3.9,4.88,12.15,12.33,22.38,22.5,30.54,1.25,1,2.54,1.97,3.87,2.91,3.99,2.82,8.36,5.35,13.11,7.59,14.89,7.02,30.53,8.73,46.78,5.74,12.55-2.31,23.66-7.58,33.79-15.16,1.54-1.15,2.95-2.45,4.44-3.66,1.09-.88,2.3-1.13,3.57-.92.31.05.62.13.94.23.68.22,1.35.49,2.02.76.22.09.44.17.67.26,11.26,4.26,22.92,5.52,34.88,4.64.6-.05,1.2-.1,1.8-.17,1.79-.2,3.55-.49,5.31-.86,2.34-.49,4.64-1.1,6.94-1.8.4-.12.7-.72.95-1.23.03-.07.07-.14.1-.21.01-.02.02-.04.02-.07,0-.04-.01-.1-.04-.17,0-.03-.02-.07-.04-.1-.07-.17-.2-.35-.32-.42-2.17-1.33-4.39-2.57-6.55-3.91-1.72-1.07-3.38-2.19-4.97-3.39-1.23-.93-2.42-1.9-3.56-2.92-.71-.63-1.4-1.27-2.07-1.94-2.46-2.44-4.67-5.14-6.59-8.15-.17-.26-.34-.65-.26-.9.23-.75.77-.86,1.49-.41,2.99,1.85,5.92,3.8,8.98,5.53,20.78,11.76,42.65,14.67,65.68,7.99,1.54-.45,3.07-.91,4.6-1.37,1.53-.46,3.05-.92,4.59-1.35.56-.16,1.21,0,1.82.02-.45.8-.76,1.73-1.38,2.37-.89.9-1.95,1.65-3.01,2.35-2.32,1.53-4.68,2.9-7.08,4.11-.68.34-1.37.67-2.06.99-1.04.48-2.09.93-3.15,1.35-1.05.41-2.11.8-3.18,1.16-.36.12-.72.24-1.08.35-1.08.33-2.16.64-3.25.92-.73.18-1.46.35-2.2.51-.51.11-1.01.21-1.52.3-5.31.98-10.8,1.24-16.49.75-.14-.01-.29-.03-.43-.04-.17-.03-.35-.05-.52-.06-.57-.04-1.08.01-1.48.14-.14.04-.27.09-.38.16-.13.07-.23.15-.31.24-.12.15-.18.32-.13.51.14.58.13,1.26.44,1.73,1.5,2.25,3.05,4.4,4.66,6.43,1.07,1.35,2.16,2.66,3.28,3.91.56.63,1.12,1.25,1.7,1.86.57.61,1.15,1.2,1.74,1.78,15.67,15.64,35.67,22.7,59.58,21.57,14.33-.68,27.57-5.58,39.23-14.02,15.95-11.55,26.25-26.26,30.5-44.23.34-1.44.64-2.89.91-4.37.26-1.48.48-2.98.67-4.5.27-2.29.46-4.61.56-6.99.06-1.45.1-2.9.1-4.35,0-4.19-.27-8.38-.88-12.53-.3-2-.67-3.99-1.14-5.98-.06-.26-.02-.58.1-.89.05-.16.12-.32.21-.47.05-.1.12-.2.19-.29.07-.1.14-.18.22-.25.19-.2.39-.33.59-.37,1.24-.27,2.5-.51,3.75-.75,1.25-.25,2.51-.51,3.74-.82,4.33-1.09,8.73-2.01,12.92-3.52,37.2-13.42,57.68-52.88,49-90.17ZM248.77,679.3c-27.97-2.77-45.75-23.14-51.41-40.16-2.98-8.97-3.89-18.02-2.51-27.32.07-.49.66-.91.98-1.33.31,0,.78-.1.84.01.42.83.93,1.66,1.11,2.55,1.22,6.28,3.08,12.36,5.52,18.27,7.73,18.77,20.95,32.49,38.6,42.18,2.51,1.37,5.04,2.71,7.54,4.1.22.12.35.49.42.77.18.65-.22,1.01-1.09.93Z"/>
      <path class="cls-1" d="M330.48,346.78c-.22-.93-.37-1.89-.71-2.78-9.04-23.28-19.32-45.98-32.21-67.42-5.44-9.06-11.37-17.78-18.16-25.9-3.91-4.67-7.96-9.22-12.71-13.04-9.11-7.31-6.61-4.13-8.22-14.92-.19-1.26-.31-2.54-.44-3.81-1.5-14.99-4.3-29.74-8.24-44.27-9.22-33.96-25.51-64-49.63-89.75-13.83-14.77-29.19-27.76-45.56-39.57-21.31-15.37-43.84-28.76-66.75-41.55-1.67-.93-3.38-1.84-5.18-2.49-7.28-2.62-13.81-1.18-19.6,3.87-2.21,1.93-3.68,4.4-5.1,6.91-10.05,17.83-19.74,35.86-28.43,54.39-7.19,15.36-13.63,31.03-18.61,47.26C4.72,133.97.4,154.57.08,175.86c-.15,9.6-.19,19.22.97,28.76,2.4,19.76,7.17,38.95,14.18,57.59,3.94,10.49,8.44,20.72,13.46,30.73,1.06,2.12,1.26,4.19.39,6.46-2.4,6.26-4.6,12.6-5.08,19.37-.69,3.43-1.7,6.84-2.01,10.3-.89,9.87-1.23,19.78-1.06,29.7.36,22.12,3.2,43.98,6.73,65.77.35,2.2,1.02,4.35,1.56,6.52.18.73,1.54,1.57,2.24,1.39,1.53-.4,3.12-.69,4.58-1.28,13.94-5.59,27.92-11.07,41.75-16.92,9.12-3.85,18.02-8.23,26.99-12.42,1.94-.91,3.66-.92,5.29.54.95.86,1.88,1.74,2.83,2.6,5.93,5.35,11.84,10.73,17.8,16.05,1.91,1.7,3.84,3.42,5.97,4.81,4.72,3.08,9.86,4.47,15.51,2.99,2.47-.65,4.96-1.24,7.42-1.93,17.23-4.81,34.46-9.62,51.68-14.45,4-1.12,8-2.26,11.97-3.46,6.57-1.99,11.1-6.1,13.19-12.76,1.24-3.97,2.63-7.89,3.84-11.86,2.06-6.72,4.06-13.46,6.03-20.2.63-2.16,2.12-3.02,4.2-3.23,6.36-.65,12.75-1.08,19.07-2.04,8.2-1.25,16.54-1.65,24.55-4.07,4.1-.54,8.23-.96,12.31-1.66,7.56-1.29,15.09-2.74,22.63-4.13.67-.13,1.57-1.6,1.41-2.25ZM120.61,217.34c-17.63-.39-34.85-13.99-35.09-35.89-.22-19.24,16.49-35.39,35.72-35.3,17.36.08,35.3,13.42,35.44,35.44.13,22.22-18.48,36.14-36.07,35.75Z"/>
      <path class="cls-1" d="M286.92,543.94c-.49.87-1.29,1.16-2.22,1.1-.27-.01-.57-.14-.78-.31-.43-.37-.29-.86.41-1.24.51-.27,1.09-.41,1.63-.62.31.36.63.72.96,1.07Z"/>
    </g>
  </g>
</svg>