<svg width="105" height="77" viewBox="0 0 105 77" fill="none" xmlns="http://www.w3.org/2000/svg">
<g clip-path="url(#clip0_21_6)">
<path d="M5.80001 40.2399C5.85001 40.1899 5.89001 40.1299 5.93001 40.0699C5.89001 40.1299 5.84001 40.1799 5.79001 40.2399H5.80001ZM7.14001 37.9899C7.14001 37.9899 7.11001 37.9899 7.10001 37.9899C7.11001 37.9899 7.13001 37.9899 7.14001 37.9899C7.14001 37.9899 7.15001 37.9899 7.16001 37.9899C7.16001 37.9899 7.15001 37.9899 7.14001 37.9899ZM10.87 29.3499C10.89 29.4899 10.91 29.6299 10.92 29.7799C10.91 29.6399 10.89 29.4999 10.87 29.3499ZM15.9 46.8799C15.9 46.8799 15.88 46.8799 15.87 46.8799C15.87 46.8799 15.89 46.8799 15.9 46.8799C16.26 46.9099 16.62 46.8899 16.95 46.8299C16.61 46.8899 16.26 46.9099 15.9 46.8799ZM17.47 46.6999C17.54 46.6799 17.61 46.6499 17.67 46.6299C17.6 46.6599 17.54 46.6799 17.47 46.6999ZM18.18 32.7799C18.22 32.8099 18.26 32.8399 18.3 32.8599C18.26 32.8299 18.22 32.7999 18.18 32.7799ZM19.56 33.5799C19.61 33.5999 19.65 33.6299 19.7 33.6499C19.65 33.6199 19.61 33.5999 19.56 33.5799ZM21.61 33.8799C21.61 33.8799 21.64 33.8599 21.66 33.8399C21.64 33.8499 21.63 33.8699 21.61 33.8799ZM23.58 35.3999C23.58 35.3999 23.58 35.4399 23.56 35.4499C23.56 35.4499 23.56 35.4499 23.56 35.4599C23.56 35.4599 23.56 35.4599 23.57 35.4499C23.58 35.4399 23.59 35.4099 23.58 35.3999Z" fill="#0A84FF"/>
<path d="M103.68 28.7399C103.06 25.9399 101.93 23.3799 100.21 21.0899C98.68 19.0499 96.8 17.3999 94.56 16.1599C92.46 14.9899 90.21 14.2899 87.82 14.0199C86.37 13.8599 84.92 13.8799 83.48 14.0999C81.37 14.4299 79.41 15.1499 77.59 16.2599C77.5 16.3099 77.43 16.3799 77.35 16.4499C77.05 16.4599 77.05 16.4599 77 16.2499C76.97 16.1299 76.95 16.0099 76.91 15.8999C76.7 15.3399 76.31 14.9899 75.73 14.8399C75.45 14.7699 75.16 14.7799 74.88 14.7799C74.21 14.7899 73.53 14.8199 72.86 14.8299C71.76 14.8499 70.65 14.8499 69.55 14.8599C68.3 14.8599 67.05 14.8699 65.81 14.8799C65.36 14.8799 64.91 14.8799 64.46 14.8999C63.52 14.9499 62.86 15.6099 62.81 16.5499C62.8 16.7699 62.81 16.9999 62.81 17.2199C62.81 18.7999 62.83 20.3699 62.84 21.9499C62.84 23.1999 62.85 24.4499 62.86 25.6899C62.86 27.0199 62.88 28.3499 62.89 29.6799C62.89 31.0499 62.9 32.4199 62.9 33.7899C62.9 36.3099 62.92 38.8199 62.92 41.3399C62.92 43.9999 62.94 46.6599 62.95 49.3199C62.95 50.5699 62.96 51.8199 62.97 53.0599C62.97 54.3899 62.97 55.7199 62.99 57.0499C63.02 58.4799 63.01 59.9099 63.01 61.3499C63.01 63.5399 63.01 65.7299 63.02 67.9199C63.02 69.0699 63.02 70.2099 63.03 71.3599C63.03 71.4999 63.03 71.6499 63.03 71.7899C63.09 72.6699 63.76 73.3099 64.63 73.3399C64.77 73.3399 64.92 73.3399 65.06 73.3399C67.02 73.3199 68.99 73.3099 70.95 73.2899C72.3 73.2799 73.65 73.2699 75 73.2499C75.35 73.2499 75.7 73.2399 76.04 73.2199C76.83 73.1899 77.52 72.4699 77.54 71.6999C77.54 71.4499 77.54 71.2099 77.54 70.9599C77.53 69.8399 77.52 68.7099 77.51 67.5799C77.5 66.1699 77.49 64.7599 77.47 63.3499C77.46 62.2899 77.42 61.2199 77.41 60.1599C77.39 58.0899 77.37 56.0299 77.35 53.9599C77.35 53.7799 77.35 53.5899 77.4 53.4099C77.53 53.4099 77.64 53.4499 77.75 53.4999C79.1 54.0799 80.52 54.3799 81.97 54.4899C83.75 54.6299 85.52 54.5699 87.29 54.2899C88.87 54.0399 90.41 53.6299 91.9 53.0399C94.86 51.8499 97.39 50.0599 99.46 47.6299C101.08 45.7199 102.27 43.5599 103.07 41.1899C103.82 38.9799 104.18 36.7099 104.23 34.3799C104.27 32.4699 104.11 30.5799 103.69 28.7099L103.68 28.7399ZM88.34 35.4699C88.3 36.2299 88.15 36.9699 87.93 37.6999C87.72 38.3699 87.43 38.9999 87.04 39.5799C86.32 40.6499 85.37 41.4199 84.17 41.8999C83.5 42.1699 82.81 42.3399 82.09 42.4099C81.64 42.4499 81.19 42.5099 80.74 42.4899C80.11 42.4699 79.48 42.4099 78.85 42.2999C78.41 42.2199 78.03 42.0599 77.73 41.7199C77.7 41.6899 77.66 41.6699 77.63 41.6499C77.62 41.6099 77.61 41.5699 77.59 41.5299C77.38 41.2099 77.33 40.8499 77.34 40.4699C77.34 40.1799 77.34 39.8999 77.34 39.6099V29.1899C77.34 29.0899 77.34 28.9899 77.34 28.8799C77.3 28.3499 77.42 27.8699 77.75 27.4499C77.76 27.4299 77.76 27.4099 77.77 27.3899C78.15 27.0999 78.59 26.9299 79.04 26.7899C79.63 26.5999 80.23 26.4899 80.84 26.4399C81.87 26.3499 82.89 26.4799 83.86 26.8199C85.16 27.2699 86.18 28.0899 86.95 29.2299C87.59 30.1799 87.97 31.2299 88.18 32.3499C88.38 33.3799 88.39 34.4199 88.33 35.4699H88.34Z" fill="#0A84FF"/>
<path d="M61.14 17.2899C61.14 19.6399 61.13 21.9899 61.12 24.3499C61.12 26.2699 61.11 28.1999 61.1 30.1199C61.1 32.8599 61.08 35.5999 61.08 38.3399C61.08 39.7299 61.07 41.1199 61.07 42.5099C61.07 45.7399 61.06 48.9699 61.06 52.2099C61.06 53.1099 61.07 54.0099 61.08 54.9099C61.1 56.1599 60.99 57.3999 60.8 58.6399C60.73 59.0999 60.62 59.5599 60.53 60.0199C60.52 60.0799 60.48 60.1299 60.45 60.1899C60.45 60.2899 60.45 60.3999 60.42 60.4899C59.65 63.5099 58.29 66.2299 56.26 68.6099C54.46 70.7199 52.3 72.3899 49.86 73.6899C47.76 74.8099 45.53 75.6199 43.21 76.1599C42.15 76.3999 41.09 76.5899 40.01 76.7199C39.04 76.8399 38.06 76.8999 37.07 76.9199C36.09 76.9399 35.11 76.9199 34.13 76.8699C33.29 76.8299 32.46 76.7199 31.63 76.5999C30.33 76.4099 29.06 76.1299 27.8 75.7699C24.44 74.7999 21.36 73.2899 18.65 71.0499C15.78 68.6799 13.67 65.7599 12.39 62.2599C11.92 60.9699 11.58 59.6399 11.37 58.2899C11.19 57.1199 11.11 55.9299 11.08 54.7499C11.05 52.9699 11.08 51.1899 11.12 49.4099C11.12 49.1199 11.15 48.8399 11.17 48.5499C11.21 47.7299 11.12 47.8399 11.93 47.9299C12.64 48.0099 13.35 48.1299 14.05 48.2399C14.5 48.2999 14.94 48.3599 15.39 48.4199C15.52 48.4399 15.62 48.4899 15.72 48.5699C15.97 48.7799 16.21 49.0099 16.47 49.2099C17.04 49.6499 17.67 49.9999 18.35 50.2199C19.79 50.6899 21.18 50.5499 22.51 49.8399C23.57 49.2799 24.38 48.4599 24.93 47.3899C24.97 47.3199 25 47.2399 25.04 47.1699C25.13 46.9799 25.28 46.8399 25.47 46.7399C25.56 46.6899 25.65 46.6399 25.75 46.6199C26.1 46.5199 26.46 46.4199 26.81 46.3199C26.86 46.3099 26.89 46.3199 26.91 46.3699C26.93 46.4299 26.95 46.4899 26.96 46.5399C27 46.9699 27.04 47.3999 27.06 47.8199C27.11 49.1099 27.09 50.3999 27.08 51.6899C27.08 52.6299 27.07 53.5699 27.08 54.5099C27.08 55.2499 27.17 55.9799 27.28 56.7099C27.51 58.2099 28.29 59.3699 29.48 60.2599C30.11 60.7299 30.79 61.0999 31.52 61.3799C32.49 61.7699 33.51 62.0099 34.54 62.1499C35.58 62.2999 36.62 62.3199 37.66 62.2499C39.56 62.1099 41.37 61.6399 43.01 60.6399C43.75 60.1899 44.41 59.6399 44.95 58.9699C45.74 57.9899 46.21 56.8799 46.36 55.6199C46.42 55.1099 46.43 54.5999 46.42 54.0899C46.38 51.9999 46.36 49.9199 46.32 47.8299C46.3 46.1699 46.27 44.5199 46.25 42.8599C46.25 42.7799 46.27 42.6999 46.28 42.6199C46.22 42.2299 46.24 41.8499 46.23 41.4599C46.2 39.6399 46.18 37.8199 46.15 35.9999C46.13 34.3399 46.11 32.6899 46.09 31.0299C46.07 29.6399 46.07 28.2499 46.05 26.8599C46.04 26.2099 46 25.5499 45.98 24.8999C45.96 24.0199 45.98 23.1399 46.09 22.2699C46.2 21.4299 46.4 20.6199 46.76 19.8599C47.21 18.9199 47.88 18.1499 48.71 17.5399C49.47 16.9799 50.32 16.5699 51.21 16.2499C52.23 15.8899 53.29 15.6399 54.36 15.4699C55.17 15.3399 55.98 15.2399 56.8 15.1699C57.53 15.1099 58.27 15.0899 59.01 15.0599C59.21 15.0599 59.42 15.0699 59.62 15.1099C60.25 15.2199 60.99 15.7299 61.12 16.6199C61.15 16.8399 61.17 17.0699 61.17 17.2899H61.14Z" fill="#0A84FF"/>
<path d="M29.26 36.8899C28.97 35.6399 28.3 34.64 27.26 33.9C27.21 33.86 27.16 33.8299 27.11 33.7999C27.06 33.7699 27.01 33.7399 26.96 33.6999C26.91 33.6699 26.86 33.6399 26.81 33.6099C26.78 33.5999 26.76 33.5799 26.73 33.5699C26.65 33.5299 26.57 33.4899 26.49 33.4499C26.44 33.4299 26.38 33.4 26.33 33.38C25.79 33.15 25.22 33.0299 24.62 33.0099C23.61 32.9699 22.67 33.1999 21.81 33.7299C21.76 33.7599 21.71 33.7999 21.66 33.8399C21.64 33.8499 21.63 33.87 21.61 33.88C21.61 33.88 21.61 33.8799 21.6 33.8899C21.57 33.9299 21.58 33.9999 21.63 34.0199C21.66 34.0299 21.7 34.04 21.73 34.06C21.8 34.08 21.86 34.11 21.93 34.13C21.96 34.14 22 34.1599 22.03 34.1699C22.61 34.4099 23.11 34.7599 23.5 35.2499C23.5 35.2599 23.52 35.2699 23.53 35.2899C23.54 35.3099 23.55 35.3299 23.56 35.3499C23.56 35.3599 23.57 35.3799 23.58 35.3899C23.58 35.3899 23.58 35.3999 23.58 35.4099C23.58 35.4199 23.58 35.4499 23.56 35.4599C23.56 35.4599 23.56 35.4599 23.56 35.4699C23.56 35.4799 23.56 35.4699 23.55 35.4799C23.54 35.4799 23.53 35.49 23.53 35.49C23.37 35.41 23.2 35.3199 23.05 35.2299C21.74 34.4799 20.36 34.3199 18.9 34.6899C18.72 34.7299 18.54 34.77 18.36 34.81C18.33 34.87 18.28 34.88 18.22 34.88C18.2 34.88 18.18 34.8799 18.17 34.8599C18.14 34.8399 18.15 34.7999 18.2 34.7799C18.23 34.7599 18.27 34.75 18.3 34.74C18.33 34.71 18.35 34.68 18.38 34.65C18.39 34.63 18.41 34.6199 18.42 34.6099C18.43 34.5999 18.45 34.5799 18.46 34.5699C18.62 34.4599 18.8 34.3599 18.97 34.2799C19.02 34.2599 19.07 34.2299 19.12 34.2099C19.3 34.1399 19.49 34.0799 19.68 34.0299C19.78 34.0099 19.87 33.9699 19.97 33.9299C19.97 33.9299 19.97 33.9299 19.98 33.9299C19.99 33.9199 20 33.8999 20 33.8899V33.8699C20 33.8599 20 33.8499 19.98 33.8499L19.84 33.7699C19.84 33.7699 19.75 33.7199 19.7 33.6899C19.65 33.6599 19.61 33.6399 19.56 33.6199C19.5 33.5899 19.44 33.5599 19.38 33.5299C19.32 33.4999 19.26 33.4699 19.2 33.4399C19.02 33.3499 18.85 33.2499 18.68 33.1399C18.55 33.0599 18.43 32.98 18.3 32.9C18.26 32.87 18.22 32.8399 18.18 32.8199C17.96 32.6699 17.75 32.5199 17.54 32.3599C17.42 32.2599 17.3 32.1699 17.18 32.0699C16.92 31.8499 16.67 31.6199 16.43 31.3799C15.43 30.3699 14.66 29.1799 14.12 27.7899C14.06 27.6299 14 27.4699 13.95 27.3099C13.93 27.2599 13.91 27.1999 13.89 27.1499C13.87 27.0799 13.84 27.0299 13.81 26.9899C13.81 26.9899 13.81 26.9899 13.8 26.9799C13.75 26.9399 13.68 26.9299 13.58 26.9599C12.95 27.1399 12.32 27.3099 11.69 27.4899C11.41 27.5699 11.14 27.6399 10.86 27.7299C10.58 27.8099 10.55 27.8599 10.62 28.1199C10.67 28.3299 10.72 28.5399 10.75 28.7499C10.78 28.9099 10.8 29.0699 10.83 29.2299C10.83 29.2799 10.85 29.3399 10.85 29.3899C10.87 29.5299 10.89 29.6699 10.9 29.8199C10.9 29.8199 10.9 29.8899 10.9 29.9299C10.9 29.9999 10.91 30.0699 10.91 30.1399C10.91 30.1799 10.91 30.2099 10.91 30.2499C10.93 30.9499 10.87 31.64 10.74 32.33C10.58 33.24 10.28 34.1099 9.89 34.9499C9.87 34.9899 9.85 35.04 9.83 35.08C9.79 35.17 9.74 35.2599 9.7 35.3399C9.68 35.3799 9.66 35.4299 9.63 35.4699C9.59 35.5599 9.54 35.6399 9.49 35.7299C9.26 36.1499 9 36.5699 8.72 36.9699C8.63 37.0999 8.54 37.2399 8.46 37.3799C8.43 37.4199 8.49 37.5199 8.54 37.5099C8.68 37.4999 8.81 37.4899 8.95 37.4799C9 37.4799 9.04 37.4799 9.09 37.4799C9.4 37.4699 9.7 37.4699 10 37.5299C10.06 37.5399 10.12 37.5599 10.18 37.5699C10.21 37.5699 10.25 37.5899 10.28 37.5999C10.32 37.6099 10.36 37.6299 10.4 37.6399C10.42 37.6399 10.44 37.6599 10.47 37.6699C10.48 37.6699 10.49 37.6799 10.5 37.6899C10.52 37.7099 10.52 37.7299 10.5 37.7499C10.5 37.7499 10.5 37.7499 10.5 37.7599C10.5 37.7599 10.49 37.7799 10.48 37.7799C10.24 37.8099 9.99 37.8299 9.75 37.8599C9.63 37.8699 9.51 37.8899 9.4 37.9099C9.33 37.9199 9.25 37.9399 9.18 37.9499C9.11 37.9699 9.04 37.9799 8.97 37.9999C8.94 37.9999 8.91 38.0099 8.89 38.0199C8.83 38.0399 8.78 38.0499 8.72 38.0699C8.66 38.0899 8.61 38.1099 8.55 38.1199C8.28 38.2199 8.01 38.3299 7.75 38.4799C7.7 38.5099 7.65 38.5399 7.6 38.5699C7.45 38.6599 7.3 38.7599 7.15 38.8699C6.94 39.0199 6.75 39.1899 6.57 39.3699C6.52 39.4099 6.48 39.4599 6.44 39.5099C6.31 39.6499 6.18 39.7899 6.06 39.9499C6.02 40.0099 5.97 40.0599 5.93 40.1199C5.89 40.1799 5.84 40.2299 5.79 40.2899C5.79 40.2899 5.77 40.2999 5.76 40.2999H5.74C5.73 40.2999 5.71 40.2999 5.7 40.2999C5.7 40.2999 5.69 40.26 5.69 40.24C5.74 40.04 5.81 39.8499 5.89 39.6599C5.91 39.6199 5.93 39.5799 5.95 39.5399C5.97 39.4999 5.99 39.4599 6.01 39.4199C6.03 39.3799 6.05 39.3399 6.08 39.3099C6.18 39.1399 6.3 38.98 6.44 38.83C6.47 38.8 6.5 38.7599 6.53 38.7299C6.59 38.6599 6.65 38.5999 6.72 38.5399C6.75 38.5099 6.78 38.4799 6.82 38.4499C6.94 38.3399 7.06 38.2299 7.18 38.1199C7.18 38.1199 7.18 38.1199 7.18 38.1099V38.0899C7.18 38.0899 7.18 38.09 7.18 38.08C7.18 38.08 7.18 38.0799 7.18 38.0699C7.18 38.0699 7.18 38.0699 7.17 38.0599C7.17 38.0599 7.17 38.0599 7.15 38.0599C7.15 38.0599 7.14 38.0599 7.13 38.0599C7.12 38.0599 7.1 38.0599 7.09 38.0599C7.06 38.0599 7.04 38.0599 7.01 38.0599C7 38.0599 6.99 38.0599 6.97 38.0599C6.94 38.0599 6.91 38.0599 6.88 38.0699C6.88 38.0699 6.88 38.0699 6.87 38.0699C6.87 38.0699 6.85 38.0699 6.84 38.0699C6.82 38.0699 6.81 38.07 6.79 38.08C6.75 38.08 6.72 38.0999 6.68 38.1099C6.66 38.1099 6.64 38.1199 6.62 38.1299C6.59 38.1299 6.56 38.15 6.53 38.15C4.32 38.66 2.64 40.6799 2.72 43.1799C2.72 43.2399 2.72 43.2899 2.72 43.3499C2.72 43.4699 2.74 43.5799 2.75 43.6999C2.75 43.7099 2.75 43.7199 2.75 43.7299C2.75 43.7399 2.75 43.7499 2.75 43.7599C2.77 43.8699 2.79 43.98 2.82 44.08C2.84 44.14 2.85 44.1999 2.87 44.2699C2.89 44.3399 2.9 44.3899 2.92 44.4499C2.94 44.5099 2.96 44.5699 2.98 44.6299C3.01 44.7199 3.04 44.7999 3.07 44.8799C3.38 45.6599 3.86 46.31 4.51 46.83C4.59 46.89 4.67 46.9599 4.76 47.0199C5.02 47.1999 5.29 47.3599 5.6 47.5099C6.55 47.9599 7.55 48.0699 8.59 47.8799C9.39 47.7299 10.1 47.3999 10.75 46.9099C10.85 46.8399 10.94 46.7499 11.03 46.6799C11.1 46.6199 11.18 46.6099 11.26 46.6199C11.28 46.6199 11.3 46.6199 11.32 46.6299C11.36 46.6399 11.41 46.6599 11.45 46.6799C11.46 46.6799 11.48 46.6899 11.49 46.6999C12.21 46.9699 12.96 47.0499 13.72 46.9999C13.76 46.9999 13.8 47 13.84 46.99C13.95 46.98 14.07 46.9599 14.18 46.9299C14.33 46.8999 14.48 46.8599 14.62 46.8099C14.65 46.8099 14.66 46.7599 14.68 46.7299C14.68 46.7299 14.68 46.7299 14.68 46.7199C14.68 46.7199 14.68 46.7199 14.68 46.7099C14.68 46.6999 14.67 46.6899 14.66 46.6799C14.52 46.5899 14.38 46.5199 14.24 46.4299C14.13 46.3599 14.02 46.2899 13.92 46.2099C13.84 46.1499 13.77 46.0899 13.69 46.0199C13.64 45.9799 13.6 45.94 13.56 45.9C13.4 45.74 13.26 45.5699 13.14 45.3799C13.13 45.3599 13.12 45.3399 13.12 45.3199C13.13 45.2699 13.17 45.2599 13.22 45.2899C13.41 45.4099 13.6 45.5299 13.79 45.6399C15.12 46.3899 16.52 46.58 17.99 46.15C18.09 46.12 18.19 46.0899 18.28 46.0599C18.38 46.0299 18.48 45.9999 18.57 45.9699C18.61 45.9599 18.65 45.9699 18.69 45.9699C18.66 46.0199 18.64 46.0799 18.6 46.1199C18.54 46.1799 18.48 46.2299 18.41 46.2699C18.26 46.3699 18.11 46.4599 17.96 46.5299C17.92 46.5499 17.87 46.5699 17.83 46.5899C17.76 46.6199 17.7 46.6499 17.63 46.6799C17.56 46.7099 17.5 46.7299 17.43 46.7499C17.41 46.7499 17.38 46.7699 17.36 46.7699C17.29 46.7899 17.22 46.81 17.15 46.83C17.1 46.84 17.06 46.8499 17.01 46.8599C16.98 46.8599 16.95 46.8699 16.91 46.8799C16.57 46.9399 16.22 46.9599 15.86 46.9299C15.86 46.9299 15.84 46.9299 15.83 46.9299C15.82 46.9299 15.81 46.9299 15.8 46.9299C15.76 46.9299 15.73 46.9299 15.71 46.9299C15.71 46.9299 15.69 46.9299 15.69 46.9399C15.69 46.9399 15.68 46.9399 15.67 46.9599C15.67 46.9599 15.66 46.98 15.67 46.99C15.67 47.03 15.67 47.0699 15.7 47.0999C15.8 47.2399 15.9 47.3799 16 47.5099C16.07 47.5999 16.14 47.6799 16.21 47.7599C16.25 47.7999 16.28 47.8399 16.32 47.8799C16.36 47.9199 16.39 47.96 16.43 47.99C17.43 48.99 18.71 49.4399 20.24 49.3699C21.16 49.3299 22 49.0099 22.75 48.4699C23.77 47.7299 24.43 46.7899 24.7 45.6399C24.72 45.5499 24.74 45.4599 24.76 45.3599C24.78 45.2699 24.79 45.1699 24.8 45.0699C24.82 44.9199 24.83 44.7799 24.84 44.6199C24.84 44.5299 24.84 44.4299 24.84 44.3399C24.84 44.0699 24.82 43.7999 24.78 43.5399C24.76 43.4099 24.74 43.2799 24.71 43.1599C24.71 43.1399 24.71 43.1199 24.71 43.0999C24.71 43.0899 24.71 43.0799 24.72 43.0699C24.72 43.0699 24.72 43.0599 24.73 43.0499C24.73 43.0499 24.73 43.0399 24.74 43.0299C24.75 43.0199 24.76 43.0099 24.78 43.0099C24.86 42.9899 24.94 42.9799 25.02 42.9599C25.1 42.9399 25.18 42.9299 25.26 42.9099C25.54 42.8399 25.82 42.7799 26.09 42.6799C28.47 41.8199 29.78 39.2999 29.22 36.9099L29.26 36.8899ZM15.92 43.4599C14.13 43.2799 12.99 41.9799 12.63 40.8899C12.44 40.3199 12.38 39.7399 12.47 39.1399C12.47 39.1099 12.51 39.0799 12.53 39.0499C12.55 39.0499 12.58 39.0499 12.58 39.0499C12.61 39.0999 12.64 39.1599 12.65 39.2099C12.73 39.6099 12.85 39.9999 13 40.3799C13.49 41.5799 14.34 42.46 15.47 43.08C15.63 43.17 15.79 43.2499 15.95 43.3399C15.96 43.3399 15.97 43.3699 15.98 43.3899C15.99 43.4299 15.97 43.4499 15.91 43.4499L15.92 43.4599Z" fill="#0A84FF"/>
<path d="M21.14 22.1899C21.13 22.1299 21.12 22.0699 21.09 22.0099C20.51 20.5199 19.85 19.0699 19.03 17.6999C18.68 17.1199 18.3 16.5599 17.87 16.0399C17.62 15.7399 17.36 15.4499 17.06 15.2099C16.48 14.7399 16.64 14.9499 16.53 14.2599C16.52 14.1799 16.51 14.0999 16.5 14.0199C16.4 13.0599 16.22 12.1199 15.97 11.1899C15.38 9.01995 14.34 7.09995 12.79 5.44995C11.91 4.50995 10.92 3.66995 9.88001 2.91995C8.52001 1.93995 7.08001 1.07995 5.61001 0.259947C5.50001 0.199947 5.39001 0.139947 5.28001 0.0999469C4.81001 -0.0700531 4.40001 0.0199468 4.03001 0.349947C3.89001 0.469947 3.79001 0.629947 3.70001 0.789947C3.06001 1.92995 2.44001 3.07995 1.88001 4.26995C1.42001 5.24995 1.01001 6.25995 0.690006 7.28995C0.300006 8.56995 0.0300055 9.88995 5.54614e-06 11.2499C5.54614e-06 11.8599 -0.00999445 12.4799 0.0600055 13.0899C0.210006 14.3499 0.520006 15.5799 0.970006 16.7699C1.22001 17.4399 1.51001 18.0999 1.83001 18.7399C1.90001 18.8799 1.91001 19.0099 1.85001 19.1499C1.70001 19.5499 1.56001 19.9599 1.52001 20.3899C1.48001 20.6099 1.41001 20.8299 1.39001 21.0499C1.33001 21.6799 1.31001 22.3199 1.32001 22.9499C1.34001 24.3699 1.52001 25.7599 1.75001 27.1599C1.77001 27.2999 1.82001 27.4399 1.85001 27.5799C1.86001 27.6299 1.95001 27.6799 1.99001 27.6699C2.09001 27.6399 2.19001 27.6299 2.28001 27.5899C3.17001 27.2299 4.07001 26.8799 4.95001 26.5099C5.53001 26.2599 6.10001 25.9799 6.68001 25.7199C6.80001 25.6599 6.91001 25.6599 7.02001 25.7499C7.08001 25.8099 7.14001 25.8599 7.20001 25.9199C7.58001 26.2599 7.96001 26.6099 8.34001 26.9499C8.46001 27.0599 8.59001 27.1699 8.72001 27.2599C9.02001 27.4599 9.35001 27.5499 9.71001 27.4499C9.87001 27.4099 10.03 27.3699 10.18 27.3299C11.28 27.0199 12.38 26.7099 13.49 26.4099C13.75 26.3399 14 26.2699 14.26 26.1899C14.68 26.0599 14.97 25.7999 15.1 25.3699C15.18 25.1199 15.27 24.8699 15.35 24.6099C15.48 24.1799 15.61 23.7499 15.74 23.3199C15.78 23.1799 15.88 23.1299 16.01 23.1099C16.42 23.0699 16.83 23.0399 17.23 22.9799C17.75 22.8999 18.29 22.8699 18.8 22.7199C19.06 22.6899 19.33 22.6599 19.59 22.6099C20.07 22.5299 20.56 22.4299 21.04 22.3499C21.08 22.3499 21.14 22.2499 21.13 22.2099L21.14 22.1899ZM7.72001 13.8999C6.59001 13.8799 5.49001 12.9999 5.48001 11.5999C5.47001 10.3699 6.53001 9.33995 7.77001 9.33995C8.88001 9.33995 10.03 10.1999 10.04 11.6099C10.04 13.0299 8.86001 13.9199 7.73001 13.8999H7.72001Z" fill="#0A84FF"/>
<path d="M18.36 34.8C18.33 34.86 18.28 34.87 18.22 34.87C18.2 34.87 18.18 34.87 18.17 34.85C18.14 34.83 18.15 34.79 18.2 34.77C18.23 34.75 18.27 34.74 18.3 34.73C18.32 34.75 18.34 34.78 18.36 34.8Z" fill="#0A84FF"/>
</g>
<defs>
<clipPath id="clip0_21_6">
<rect width="104.23" height="76.94" fill="white"/>
</clipPath>
</defs>
</svg>
